<svg id="Livello_1" data-name="Livello 1" xmlns="http://www.w3.org/2000/svg" viewBox="0 0 348.77 133.76"><defs><style>.cls-1{fill:#3c3c3b;}.cls-2{fill:#e63329;}</style></defs><title>logo art-er_oriz IT</title><path class="cls-1" d="M312.88,43.93h5.24V31.31h2.68c3.31,0,5,7,9.54,10.69a9.22,9.22,0,0,0,6,2.18,11.79,11.79,0,0,0,4.11-.65l-1.09-4.45a9.8,9.8,0,0,1-2.28.3,5.35,5.35,0,0,1-3.46-1.29c-2.62-2.13-4-6.48-6.09-7.67v-.1c5.35-.89,9.36-3.71,9.36-9.3,0-5.15-3.42-7.92-7.67-9a26.24,26.24,0,0,0-6.58-.65h-9.75Zm5.24-17.32V16h4.61a17.71,17.71,0,0,1,4.94.45,4.69,4.69,0,0,1,3.71,4.65c0,2.67-1.63,4.25-4.15,5a19.13,19.13,0,0,1-5.15.49ZM284.38,43.93h23.55v-4.7H289.62v-9.5H306V25H289.62V16h18v-4.7H284.38ZM264.14,33.59h14.2V29h-14.2ZM249.45,43.93h5.24V16h12.12v-4.7H237.33V16h12.12Zm-37.61,0h5.25V31.31h2.67c3.32,0,5.05,7,9.55,10.69a9.18,9.18,0,0,0,6,2.18,11.77,11.77,0,0,0,4.1-.65l-1.08-4.45a9.93,9.93,0,0,1-2.28.3,5.33,5.33,0,0,1-3.46-1.29c-2.63-2.13-4-6.48-6.09-7.67v-.1c5.34-.89,9.35-3.71,9.35-9.3,0-5.15-3.41-7.92-7.67-9a26.19,26.19,0,0,0-6.58-.65h-9.75Zm5.25-17.32V16h4.6a17.79,17.79,0,0,1,4.95.45,4.69,4.69,0,0,1,3.71,4.65c0,2.67-1.63,4.25-4.16,5a19,19,0,0,1-5.14.49ZM185.47,30l5.44-11.43h.1L196.75,30Zm-12.42,14h5.79l4.41-9.25h15.88l4.65,9.25h5.79L192.84,11.17h-3.66Z"/><path class="cls-2" d="M160.17,13.05v-2.9A22,22,0,0,1,156.48,12a90.75,90.75,0,0,1-11.14,3.56Q140,17,134.6,17.84a66.16,66.16,0,0,1-15.07,1c-2.12-.14-4.23-.43-6.34-.74-4.25-.62-8.44-1.53-12.63-2.47-4.65-1-9.27-2.2-13.89-3.36L70,8.05c-3.82-1-7.67-1.78-11.54-2.54-2.32-.45-4.66-.79-7-1.12A77.11,77.11,0,0,0,38.79,3.9c-2.95.07-5.9.27-8.84.57a69.2,69.2,0,0,0-11.16,2A41,41,0,0,0,7.59,11.1L4.41,13.29V45.55L160.17,122v-109"/><path class="cls-1" d="M44.69,49.07h.13A12,12,0,0,0,45,25a12,12,0,0,0-8.76,20.4,12,12,0,0,0,8.48,3.64"/><path class="cls-1" d="M134,75.63m-1.62,46.58a11.84,11.84,0,0,0,2.25-5.37c0-.11,0-.23.05-.34s0-.45.06-.68,0-.23,0-.34,0-.28,0-.42,0-.38,0-.57h0a11.7,11.7,0,0,0-.38-2.45c0-.09-.05-.19-.07-.29s-.13-.39-.19-.58-.11-.3-.17-.45-.17-.42-.26-.63a.36.36,0,0,1,0-.09,1.09,1.09,0,0,1-.08-.15c-.1-.22-.21-.43-.33-.64s-.21-.36-.32-.54l-.23-.36-.37-.5-.33-.43-.14-.14a9.19,9.19,0,0,0-.67-.73l0,0a28.48,28.48,0,0,1-4.48-5.63,10.28,10.28,0,0,1-1.51-6.09A12.4,12.4,0,0,1,128,88.28c.78-1,1.64-2,2.63-3a12,12,0,0,0,2-2.25,11.21,11.21,0,0,0,1.85-4.16c.07-.31.11-.62.15-.93l0-.29c0-.3.06-.6.07-.89s0-.65,0-1v-.13a12,12,0,0,0-3.39-8,9,9,0,0,0-1-1,26.13,26.13,0,0,1-3.66-4.76,10.32,10.32,0,0,1-1.51-6.1A12.4,12.4,0,0,1,128,49.36a48,48,0,0,1,3.38-3.85,12,12,0,0,0,0-16.78,11,11,0,0,0-4.72-3,11.7,11.7,0,0,0-10.76,1.53,11.24,11.24,0,0,0-4.62,6.45,11.65,11.65,0,0,0,2.82,11.63l.15.15a30.44,30.44,0,0,1,4.86,6.21,9.87,9.87,0,0,1,1.29,5.88,9.64,9.64,0,0,1-1.35,4l-.56.94a10.89,10.89,0,0,1-1.78,2.52c-.51.51-1,1.06-1.68,1.79a11.2,11.2,0,0,0-3.56,5.21l-.1.33-.09.26c0,.08,0,.16-.05.23l0,.21a1.82,1.82,0,0,0-.07.25,1.57,1.57,0,0,1,0,.23v.11c-.07.37-.13.72-.17,1.08l0,.34c0,.41,0,.81,0,1.21v.38c0,.34,0,.68.08,1s.08.49.13.77l0,.13.09.41a12.21,12.21,0,0,0,3.16,5.59,7.46,7.46,0,0,0,.81.76,26.93,26.93,0,0,1,4,5.27,9.92,9.92,0,0,1,1.29,5.89,9.64,9.64,0,0,1-1.35,4l-.56.94a11.2,11.2,0,0,1-1.78,2.52c-.72.71-1.4,1.47-2,2.13a5.74,5.74,0,0,0-.45.41c-.13.13-.25.27-.38.41a27.9,27.9,0,0,1-5.36,4.23,10.22,10.22,0,0,1-6.1,1.5,12.27,12.27,0,0,1-6.44-2.8c-1-.78-2-1.64-3-2.63a11.74,11.74,0,0,0-2.26-2,11.17,11.17,0,0,0-4.15-1.85,7.59,7.59,0,0,0-.9-.14l-.33,0c-.3,0-.6-.06-.88-.07s-.66,0-1,0h-.12a11.91,11.91,0,0,0-8,3.39,8.22,8.22,0,0,0-1,1.05,26.17,26.17,0,0,1-4.77,3.66,10.19,10.19,0,0,1-6.09,1.5,12.26,12.26,0,0,1-6.45-2.8,50.35,50.35,0,0,1-3.85-3.38,11.92,11.92,0,0,0-5.13-3,11.78,11.78,0,0,0-11.65,2.95,11,11,0,0,0-3,4.72A11.68,11.68,0,0,0,35,121.94a11.28,11.28,0,0,0,6.45,4.62,13.45,13.45,0,0,0,3.58.51,11.59,11.59,0,0,0,8-3.33l.16-.15a30.73,30.73,0,0,1,6.2-4.86,9.89,9.89,0,0,1,5.88-1.29,9.5,9.5,0,0,1,4,1.35l.94.56a11.11,11.11,0,0,1,2.52,1.78c.63.64,1.28,1.23,1.79,1.68a11.17,11.17,0,0,0,5.2,3.56l.34.11.26.08.23,0,.2,0,.26.07.23,0,.11,0c.36.07.72.13,1.08.17l.34,0c.4,0,.81.05,1.2.05h.39c.34,0,.68,0,1-.08l.76-.13.13,0,.42-.09a12.17,12.17,0,0,0,5.58-3.16,7.46,7.46,0,0,0,.77-.81,26.63,26.63,0,0,1,5.27-4,9.89,9.89,0,0,1,5.88-1.29,9.5,9.5,0,0,1,4,1.35l.93.56a11,11,0,0,1,2.53,1.78c.77.78,1.57,1.49,2.32,2.14l.13.15c.3.3.61.59.93.86l.33.24a11.37,11.37,0,0,0,1.29.89l.27.17h0c.32.18.65.34,1,.49l.11,0c.23.1.46.18.7.26a11,11,0,0,0,1.61.45l.5.08c.21,0,.43.07.65.09l.63,0,.44,0h.28l.26,0a11.8,11.8,0,0,0,5.49-1.54l.31-.19c.21-.12.42-.25.62-.39l.47-.35.48-.39.39-.35.28-.26c.13-.12.23-.25.35-.38l.06-.06.06-.06c.19-.21.37-.43.54-.65l.16-.21"/><path class="cls-1" d="M94.93,80.72l.08-.18a8,8,0,0,0,.29-.82c.06-.16.1-.33.15-.51s.14-.49.19-.74,0-.21,0-.31.09-.5.12-.75,0-.34,0-.51,0-.29,0-.44,0-.28,0-.43a12,12,0,0,0-4-8.89,27.16,27.16,0,0,1-4.16-5.3,10.13,10.13,0,0,1-1.51-6.09,12.34,12.34,0,0,1,2.8-6.45,50.08,50.08,0,0,1,3.38-3.85,12,12,0,0,0,0-16.78,11,11,0,0,0-4.72-3A11.68,11.68,0,0,0,77,27.23a11.28,11.28,0,0,0-4.62,6.45A11.65,11.65,0,0,0,75.2,45.31l.15.16a30.62,30.62,0,0,1,4.85,6.19,9.89,9.89,0,0,1,1.29,5.88,9.5,9.5,0,0,1-1.35,4c-.19.31-.37.62-.55.94A11.78,11.78,0,0,1,77.81,65c-.64.63-1.25,1.3-1.78,1.91-.22.18-.44.37-.65.58a10.13,10.13,0,0,0-.7.77,26.27,26.27,0,0,1-5,3.91,10.13,10.13,0,0,1-6.09,1.51,12.34,12.34,0,0,1-6.45-2.8,50.08,50.08,0,0,1-3.85-3.38,12,12,0,0,0-16.78,0,11,11,0,0,0-3,4.72A11.68,11.68,0,0,0,35,83a11.28,11.28,0,0,0,6.45,4.62,13.43,13.43,0,0,0,3.58.5,11.51,11.51,0,0,0,8-3.33l.16-.14a30.38,30.38,0,0,1,6.2-4.86,9.89,9.89,0,0,1,5.88-1.29,9.5,9.5,0,0,1,4,1.35l.94.56a11.17,11.17,0,0,1,2.52,1.77c.83.85,1.7,1.62,2.49,2.3l.09.1a8.76,8.76,0,0,0,1.94,1.57,9.84,9.84,0,0,0,3,1.44,12,12,0,0,0,7.5-.18l.2-.07c.24-.09.47-.18.69-.28a11.3,11.3,0,0,0,4-2.85,9.61,9.61,0,0,0,1.09-1.41.83.83,0,0,0,.08-.12c0-.06.09-.12.13-.19.16-.25.3-.5.44-.75a.08.08,0,0,0,0,0,9,9,0,0,0,.45-.94"/><rect class="cls-2" x="173.05" y="59.87" width="167.76" height="4"/><path class="cls-1" d="M333.94,79.94l1,2.57h1.23l-.56-2.57Zm0,8.83,1.61-3.38h0l1.7,3.38ZM330.3,92.9H332l1.3-2.74H338l1.38,2.74h1.71l-4.94-9.68h-1.09Zm-10.11,0h1.55V84.65h3.58V83.26h-8.71v1.39h3.58Zm-12.5,0h1.55V83.26h-1.55Zm-18.15-9.64,5,9.68h1l4.78-9.68h-1.67L295,90.76h0l-3.78-7.5Zm-9,9.64h1.55V83.26h-1.55Zm-12.5,0h1.55V84.65h3.58V83.26h-8.71v1.39h3.58Zm-14.82,0h1.54V84.65h3.59V83.26h-8.72v1.39h3.59Zm-15.68-4.13,1.61-3.38h0l1.69,3.38Zm-3.67,4.13h1.71l1.3-2.74h4.69L243,92.9h1.71l-4.94-9.68h-1.09Zm-14.65,0h1.54V89.17h.79c1,0,1.5,2.07,2.83,3.16a2.73,2.73,0,0,0,1.77.64,3.45,3.45,0,0,0,1.21-.19l-.32-1.32a2.88,2.88,0,0,1-.67.09,1.63,1.63,0,0,1-1-.38c-.77-.63-1.17-1.92-1.8-2.27v0c1.58-.26,2.77-1.09,2.77-2.75a2.7,2.7,0,0,0-2.27-2.67,7.59,7.59,0,0,0-1.94-.19h-2.88Zm1.54-5.12V84.65h1.37a5.2,5.2,0,0,1,1.46.13,1.38,1.38,0,0,1,1.1,1.37,1.5,1.5,0,0,1-1.23,1.48,5.48,5.48,0,0,1-1.52.15ZM206.76,92.9h1.55V84.65h3.59V83.26h-8.72v1.39h3.58Zm-14.82,0h1.54V84.65h3.59V83.26h-8.72v1.39h3.59Zm-15.68-4.13,1.61-3.38h0l1.69,3.38Zm-3.67,4.13h1.71l1.3-2.74h4.7l1.37,2.74h1.71l-4.94-9.68h-1.08Z"/><path class="cls-1" d="M334,105.86l1.61-3.38h0l1.69,3.38ZM330.3,110H332l1.3-2.74H338l1.38,2.74h1.71l-4.94-9.68h-1.09Zm-27.9-4.69c0,2.92,2,4.84,5.5,4.84a9.13,9.13,0,0,0,3.65-.75l-.51-1.31a8.12,8.12,0,0,1-3,.64c-2.59,0-4-1.39-4-3.51s1.54-3.51,4-3.51a7.4,7.4,0,0,1,3.07.67l.47-1.32a8.69,8.69,0,0,0-3.69-.77c-3.23,0-5.42,2.1-5.42,5M276,110h1.55v-3.73h.79c1,0,1.49,2.08,2.82,3.16a2.73,2.73,0,0,0,1.77.64,3.45,3.45,0,0,0,1.21-.19l-.32-1.31a3.47,3.47,0,0,1-.67.08,1.53,1.53,0,0,1-1-.38c-.78-.63-1.17-1.91-1.8-2.26v0c1.58-.26,2.76-1.1,2.76-2.75a2.71,2.71,0,0,0-2.27-2.68,8.07,8.07,0,0,0-1.94-.19H276Zm1.55-5.12v-3.13h1.36a5.6,5.6,0,0,1,1.46.13,1.4,1.4,0,0,1,1.1,1.38,1.49,1.49,0,0,1-1.23,1.48,5.9,5.9,0,0,1-1.52.14ZM249.35,110h7v-1.39H250.9v-2.81h4.83v-1.39H250.9v-2.66h5.32v-1.39h-6.87ZM221,105.29c0,2.92,2,4.84,5.5,4.84a9.13,9.13,0,0,0,3.65-.75l-.51-1.31a8.12,8.12,0,0,1-3,.64c-2.59,0-4-1.39-4-3.51s1.54-3.51,3.95-3.51a7.4,7.4,0,0,1,3.07.67l.47-1.32a8.73,8.73,0,0,0-3.69-.77c-3.23,0-5.42,2.1-5.42,5M199.92,110h1.54v-9.64h-1.54Zm-27,0h1.55v-3.73h.79c1,0,1.49,2.08,2.83,3.16a2.68,2.68,0,0,0,1.76.64,3.47,3.47,0,0,0,1.22-.19l-.32-1.31a3.47,3.47,0,0,1-.68.08,1.53,1.53,0,0,1-1-.38c-.77-.63-1.17-1.91-1.8-2.26v0c1.58-.26,2.76-1.1,2.76-2.75a2.7,2.7,0,0,0-2.26-2.68,8.21,8.21,0,0,0-1.95-.19H173Zm1.55-5.12v-3.13h1.36a5.63,5.63,0,0,1,1.47.13,1.4,1.4,0,0,1,1.09,1.38,1.49,1.49,0,0,1-1.23,1.48,5.85,5.85,0,0,1-1.52.14Z"/><path class="cls-1" d="M335.57,125.79a3.52,3.52,0,1,1,3.73-3.49,3.38,3.38,0,0,1-3.73,3.49m0,1.42c3.1,0,5.35-1.88,5.35-4.91s-2.2-4.94-5.35-4.94-5.35,2-5.35,4.94,2.25,4.91,5.35,4.91m-18-.15h1.55v-9.63h-1.55Zm-18.5,0h1.55v-3.72h.79c1,0,1.49,2.07,2.82,3.15a2.73,2.73,0,0,0,1.77.65,3.76,3.76,0,0,0,1.22-.19l-.33-1.32a2.82,2.82,0,0,1-.67.09,1.58,1.58,0,0,1-1-.38c-.78-.63-1.17-1.92-1.8-2.27v0c1.58-.26,2.76-1.09,2.76-2.75a2.69,2.69,0,0,0-2.26-2.67,7.72,7.72,0,0,0-1.95-.19h-2.88Zm1.55-5.11v-3.13H302a5.2,5.2,0,0,1,1.46.13,1.38,1.38,0,0,1,1.1,1.37,1.49,1.49,0,0,1-1.23,1.48,5.4,5.4,0,0,1-1.52.15Zm-18,3.84a3.52,3.52,0,1,1,3.73-3.49,3.38,3.38,0,0,1-3.73,3.49m0,1.42c3.1,0,5.35-1.88,5.35-4.91s-2.21-4.94-5.35-4.94-5.35,2-5.35,4.94,2.25,4.91,5.35,4.91m-19.82-.15h1.55v-8.24h3.58v-1.39h-8.71v1.39h3.58Zm-15.48,0h1.54v-9.63h-1.54Zm-18.5,0h1.54v-3.72h.79c1,0,1.5,2.07,2.83,3.15a2.73,2.73,0,0,0,1.77.65A3.7,3.7,0,0,0,237,127l-.32-1.32a2.88,2.88,0,0,1-.67.09,1.63,1.63,0,0,1-1-.38c-.77-.63-1.17-1.92-1.8-2.27v0c1.58-.26,2.77-1.09,2.77-2.75a2.69,2.69,0,0,0-2.27-2.67,7.59,7.59,0,0,0-1.94-.19h-2.88Zm1.54-5.11v-3.13h1.37a5.2,5.2,0,0,1,1.46.13,1.38,1.38,0,0,1,1.1,1.37,1.5,1.5,0,0,1-1.23,1.48,5.48,5.48,0,0,1-1.52.15Zm-20,5.11h1.54v-3.72h.8c1,0,1.49,2.07,2.82,3.15a2.73,2.73,0,0,0,1.77.65,3.7,3.7,0,0,0,1.21-.19l-.32-1.32a2.88,2.88,0,0,1-.67.09,1.63,1.63,0,0,1-1-.38c-.77-.63-1.17-1.92-1.8-2.27v0c1.58-.26,2.77-1.09,2.77-2.75a2.69,2.69,0,0,0-2.27-2.67,7.59,7.59,0,0,0-1.94-.19h-2.88Zm1.54-5.11v-3.13h1.37a5.2,5.2,0,0,1,1.46.13,1.38,1.38,0,0,1,1.1,1.37,1.5,1.5,0,0,1-1.23,1.48A5.48,5.48,0,0,1,213,122Zm-19.68,5.11h7v-1.38h-5.41v-2.81h4.83v-1.39h-4.83v-2.66h5.32v-1.39h-6.87Zm-15.48,0h1.54v-8.24h3.59v-1.39h-8.72v1.39h3.59Z"/></svg>