<?xml version="1.0" encoding="UTF-8" standalone="no"?>
<!-- Uploaded to: SVG Repo, www.svgrepo.com, Generator: SVG Repo Mixer Tools -->

<svg
   width="800px"
   height="800px"
   viewBox="0 0 24 24"
   fill="none"
   version="1.1"
   id="svg7"
   sodipodi:docname="home-svgrepo-com (1).svg"
   inkscape:version="1.3.2 (091e20e, 2023-11-25)"
   xmlns:inkscape="http://www.inkscape.org/namespaces/inkscape"
   xmlns:sodipodi="http://sodipodi.sourceforge.net/DTD/sodipodi-0.dtd"
   xmlns="http://www.w3.org/2000/svg"
   xmlns:svg="http://www.w3.org/2000/svg">
  <defs
     id="defs7" />
  <sodipodi:namedview
     id="namedview7"
     pagecolor="#ffffff"
     bordercolor="#000000"
     borderopacity="0.25"
     inkscape:showpageshadow="2"
     inkscape:pageopacity="0.0"
     inkscape:pagecheckerboard="0"
     inkscape:deskcolor="#d1d1d1"
     inkscape:zoom="0.755"
     inkscape:cx="400"
     inkscape:cy="400"
     inkscape:window-width="1440"
     inkscape:window-height="1099"
     inkscape:window-x="0"
     inkscape:window-y="25"
     inkscape:window-maximized="0"
     inkscape:current-layer="svg7" />
  <g
     id="g13">
    <rect
       style="fill:#ffffff;stroke-width:0.03"
       id="rect11"
       width="15.536424"
       height="12.794702"
       x="4.2119203"
       y="8.9403982" />
    <path
       style="fill:#ffffff;stroke-width:0.03"
       d="m 4.0132449,9.576159 7.1920531,-5.5629141 1.907285,0.3576159 5.761589,4.3311261 0.596027,1.8675491 z"
       id="path12" />
    <path
       style="fill:#ffffff;stroke-width:0.03"
       d="m 15.456954,6.7549668 0.31788,-3.7350993 2.622517,0.039735 c 0,0 0.476821,2.6622519 0.556291,2.9801325 0.07947,0.3178809 0.119206,2.4635763 0.119206,2.4635763 L 15.576159,7.9867551"
       id="path13" />
  </g>
  <path
     d="M22 22L2 22"
     stroke="#1C274C"
     stroke-width="1.5"
     stroke-linecap="round"
     id="path1" />
  <path
     d="M2 11L10.1259 4.49931C11.2216 3.62279 12.7784 3.62279 13.8741 4.49931L22 11"
     stroke="#1C274C"
     stroke-width="1.5"
     stroke-linecap="round"
     id="path2" />
  <path
     opacity="0.5"
     d="M15.5 5.5V3.5C15.5 3.22386 15.7239 3 16 3H18.5C18.7761 3 19 3.22386 19 3.5V8.5"
     stroke="#1C274C"
     stroke-width="1.5"
     stroke-linecap="round"
     id="path3" />
  <path
     d="M4 22V9.5"
     stroke="#1C274C"
     stroke-width="1.5"
     stroke-linecap="round"
     id="path4" />
  <path
     d="M20 22V9.5"
     stroke="#1C274C"
     stroke-width="1.5"
     stroke-linecap="round"
     id="path5" />
  <path
     opacity="0.5"
     d="M15 22V17C15 15.5858 15 14.8787 14.5607 14.4393C14.1213 14 13.4142 14 12 14C10.5858 14 9.87868 14 9.43934 14.4393C9 14.8787 9 15.5858 9 17V22"
     stroke="#1C274C"
     stroke-width="1.5"
     id="path6" />
  <path
     opacity="0.5"
     d="M14 9.5C14 10.6046 13.1046 11.5 12 11.5C10.8954 11.5 10 10.6046 10 9.5C10 8.39543 10.8954 7.5 12 7.5C13.1046 7.5 14 8.39543 14 9.5Z"
     stroke="#1C274C"
     stroke-width="1.5"
     id="path7" />
  <path
     style="fill:#000000;stroke-width:1.3245"
     d="m 62.063834,757.0211 c -11.34836,-2.72375 -19.323131,-12.54611 -19.323131,-23.79988 0,-7.12282 2.349293,-12.41374 7.803302,-17.57404 6.035243,-5.71025 9.685239,-6.37566 34.972684,-6.37566 H 109.27152 V 536.35875 363.44597 l -13.152123,10.65097 c -17.906478,14.50119 -21.612702,16.53693 -30.106745,16.53693 -12.967889,0 -23.271949,-10.80355 -23.271949,-24.40006 0,-3.96284 0.979008,-8.23653 2.49303,-10.88288 3.260591,-5.69917 280.553847,-227.81942 293.667697,-235.23667 37.85253,-21.409566 84.34461,-21.409566 122.19714,0 13.11385,7.41725 290.40711,229.5375 293.66769,235.23667 1.51403,2.64635 2.49304,6.92004 2.49304,10.88288 0,13.59651 -10.30407,24.40006 -23.27195,24.40006 -8.49405,0 -12.20026,-2.03574 -30.10674,-16.53693 l -13.15213,-10.65097 v 172.91278 172.91277 h 23.75483 c 25.28744,0 28.93744,0.66541 34.97269,6.37566 12.09159,11.44045 9.96313,30.00681 -4.40865,38.45621 l -5.9745,3.5125 -336.42384,0.20199 C 217.61589,757.92898 64.352567,757.57042 62.063834,757.0211 Z M 641.72185,516.81287 V 324.35423 l -99.16736,-79.39566 c -70.20588,-56.20843 -101.91025,-80.79027 -108.5593,-84.17095 -12.54935,-6.38069 -22.18796,-8.27017 -38.1931,-7.48713 -14.84413,0.72624 -23.84217,3.35602 -34.93433,10.20998 -4.18475,2.5858 -51.47935,39.83432 -105.09912,82.7745 l -97.49049,78.07304 V 516.81477 709.27152 H 400 641.72185 Z"
     id="path8"
     transform="scale(0.03)" />
  <path
     style="fill:#000000;stroke-width:1.3245"
     d="m 379.768,405.2691 c -10.75282,-2.33527 -25.57819,-9.50903 -35.37833,-17.11901 -28.10806,-21.82637 -41.05533,-58.86197 -32.47869,-92.90511 4.31239,-17.11706 10.93431,-28.70702 23.83344,-41.71426 12.4529,-12.55726 20.57058,-17.73285 36.44101,-23.23369 9.31834,-3.22982 12.59242,-3.68077 27.15232,-3.73982 18.9721,-0.0769 29.97716,2.57078 45.03311,10.83459 12.54593,6.88613 29.78133,24.75012 36.1251,37.44264 16.85929,33.73178 12.39555,72.66903 -11.54619,100.71748 -12.24766,14.34853 -31.64547,26.02611 -49.52833,29.81633 -10.97205,2.3255 -28.69316,2.28118 -39.65344,-0.0992 z m 40.7757,-51.76212 c 7.60349,-4.13833 13.08946,-9.80763 17.52764,-18.11334 2.52931,-4.73342 2.98826,-7.62655 2.98826,-18.83735 0,-11.32928 -0.446,-14.08091 -3.08352,-19.02406 -16.95335,-31.7734 -64.58819,-29.66566 -77.06298,3.40987 -3.77918,10.0201 -3.26178,25.96416 1.118,34.45154 11.07405,21.4599 37.39393,29.60757 58.5126,18.11334 z"
     id="path9"
     transform="scale(0.03)" />
  <path
     style="fill:#000000;stroke-width:1.3245"
     d="m 632.78146,253.10348 -24.17219,-19.37882 v -54.9418 -54.9418 h -33.74849 -33.7485 l -0.35746,27.67437 -0.35747,27.67437 -24.32075,-19.39622 -24.32075,-19.39623 0.59159,-16.55629 c 0.47638,-13.33201 1.1629,-17.846 3.52519,-23.17881 3.95876,-8.936784 11.11151,-16.090304 20.68366,-20.685873 l 7.94702,-3.815347 49.95032,-10e-4 c 46.66059,-9.76e-4 50.41526,0.172916 57.01,2.640324 8.57164,3.207059 16.96493,10.988757 21.8527,20.260368 l 3.63731,6.899588 0.37386,64.23842 c 0.20561,35.33112 0.20561,72.79858 0,83.26102 l -0.37386,19.02259 z"
     id="path10"
     transform="scale(0.03)" />
  <path
     style="fill:#000000;stroke-width:1.3245"
     d="m 276.47039,607.61589 c 0.43825,-97.88443 0.51857,-100.57835 3.29347,-110.46902 3.93338,-14.01989 8.7141,-22.86276 17.13085,-31.68685 8.59712,-9.01318 19.13646,-14.90621 33.15304,-18.5374 24.65715,-6.38778 115.29024,-6.39041 139.9045,-0.004 14.02154,3.63798 24.55848,9.53097 33.15303,18.54147 8.41676,8.82409 13.19747,17.66696 17.13087,31.68685 2.7749,9.89067 2.8552,12.58459 3.29347,110.46902 l 0.4492,100.33113 h -23.90993 -23.90995 l -0.0361,-79.80132 c -0.0534,-118.24983 -1.00488,-127.7439 -13.29483,-132.66136 -7.72381,-3.09046 -29.35204,-4.71283 -62.82801,-4.71283 -33.47597,0 -55.10419,1.62237 -62.82801,4.71283 -12.28996,4.91746 -13.24142,14.41153 -13.29486,132.66129 l -0.0361,79.80132 h -23.90994 -23.90995 z"
     id="path11"
     transform="scale(0.03)" />
</svg>
