<?xml version="1.0" encoding="UTF-8"?><svg id="Livello_2" xmlns="http://www.w3.org/2000/svg" viewBox="0 0 121.47 50.84"><defs><style>.cls-1{fill:#fff;}.cls-2{fill:#d20062;}.cls-3{fill:#454545;}.cls-4{fill:#58585a;}</style></defs><g id="Laboratorio_per_le_Tecnologie"><g id="Laboratorio_per_le_Tecnologie-2"><path class="cls-4" d="m9.01,38.23l.03-.04.44-.06.03.02v3.58h1.73l.02.03-.11.42-.04.03h-2.08l-.03-.03v-3.96Z"/><path class="cls-4" d="m11.82,40.76c.22-.18.55-.23.94-.23h.21c.13,0,.22-.03.26-.06v-.28c0-.46-.28-.57-.62-.57-.23,0-.44.06-.59.18h-.05s-.2-.31-.2-.31v-.05c.23-.17.53-.26.85-.26.61,0,1.09.25,1.09.91v1.54l.15.53-.03.04-.37.05-.04-.02-.17-.43s-.14.5-.81.5c-.43,0-.91-.22-.91-.88,0-.3.12-.52.29-.65Zm.7,1.1c.3,0,.71-.17.71-.17v-1.01c-.07.23-.32.3-.53.3h-.14c-.21,0-.52.08-.52.44,0,.26.19.44.49.44Z"/><path class="cls-4" d="m14.6,37.96l.03-.04.42-.06.03.02v1.51l-.03.26c.05-.11.23-.47.83-.47.53,0,.92.35.92,1.05v1.02c0,.67-.47,1.04-1.09,1.04-.37,0-.7-.16-.7-.16l-.38.05-.03-.03v-4.2Zm1.07,3.9c.4,0,.66-.25.66-.71v-.83c0-.52-.29-.7-.65-.7-.13,0-.49.11-.6.14v2s.29.11.59.11Z"/><path class="cls-4" d="m17.52,40.22c0-.67.49-1.04,1.15-1.04s1.15.37,1.15,1.04v1.03c0,.67-.49,1.04-1.15,1.04s-1.15-.37-1.15-1.04v-1.03Zm1.15,1.64c.42,0,.67-.25.67-.71v-.83c0-.46-.25-.7-.67-.7s-.67.24-.67.7v.83c0,.46.24.71.67.71Z"/><path class="cls-4" d="m20.65,39.88l-.15-.56.03-.04.37-.05.04.02.17.42c.02-.08.2-.49.82-.49l.03.04-.09.5-.04.03c-.08-.04-.19-.05-.31-.05s-.25.02-.38.05v2.43l-.03.03h-.42l-.03-.03v-2.31Z"/><path class="cls-4" d="m22.56,40.76c.22-.18.55-.23.94-.23h.21c.13,0,.22-.03.26-.06v-.28c0-.46-.28-.57-.62-.57-.23,0-.44.06-.59.18h-.05s-.2-.31-.2-.31v-.05c.23-.17.53-.26.85-.26.61,0,1.09.25,1.09.91v1.54l.15.53-.03.04-.37.05-.04-.02-.17-.43s-.14.5-.81.5c-.43,0-.91-.22-.91-.88,0-.3.12-.52.29-.65Zm.7,1.1c.3,0,.71-.17.71-.17v-1.01c-.07.23-.32.3-.53.3h-.14c-.21,0-.52.08-.52.44,0,.26.19.44.49.44Z"/><path class="cls-4" d="m25.41,39.69h-.32l-.03-.03v-.37l.03-.03h.35l.05-.61.03-.04.34-.05.03.02v.67h1l.03.03-.11.37-.04.03h-.87v1.45c0,.41.2.71.53.71.23,0,.44-.19.44-.19h.04s.19.35.19.35v.04c-.21.14-.44.24-.71.24-.55,0-.97-.37-.97-1.12v-1.48Z"/><path class="cls-4" d="m27.5,40.22c0-.67.49-1.04,1.15-1.04s1.15.37,1.15,1.04v1.03c0,.67-.49,1.04-1.15,1.04s-1.15-.37-1.15-1.04v-1.03Zm1.15,1.64c.42,0,.67-.25.67-.71v-.83c0-.46-.25-.7-.67-.7s-.67.24-.67.7v.83c0,.46.24.71.67.71Z"/><path class="cls-4" d="m30.63,39.88l-.15-.56.03-.04.37-.05.04.02.17.42c.02-.08.2-.49.82-.49l.03.04-.09.5-.04.03c-.08-.04-.19-.05-.31-.05s-.25.02-.38.05v2.43l-.03.03h-.42l-.03-.03v-2.31Z"/><path class="cls-4" d="m32.43,38.54v-.5l.03-.03h.5l.03.03v.5l-.03.03h-.5l-.03-.03Zm.04.78l.03-.04.42-.06.03.02v2.94l-.03.03h-.42l-.03-.03v-2.87Z"/><path class="cls-4" d="m33.75,40.22c0-.67.49-1.04,1.15-1.04s1.15.37,1.15,1.04v1.03c0,.67-.49,1.04-1.15,1.04s-1.15-.37-1.15-1.04v-1.03Zm1.15,1.64c.42,0,.67-.25.67-.71v-.83c0-.46-.25-.7-.67-.7s-.67.24-.67.7v.83c0,.46.24.71.67.71Z"/><path class="cls-4" d="m38.86,42.36v1.12l-.03.04-.42.06-.03-.02v-3.67l-.15-.56.03-.04.37-.05.04.02.17.42c.02-.08.2-.49.84-.49.53,0,.92.35.92,1.04v1.03c0,.67-.47,1.04-1.1,1.04-.25,0-.49-.08-.66-.21l.02.28Zm.62-.5c.37,0,.64-.25.64-.71v-.83c0-.52-.3-.7-.64-.7-.13,0-.5.11-.61.14v1.47c0,.43.21.64.62.64Z"/><path class="cls-4" d="m41.31,40.25c0-.67.46-1.06,1.14-1.06.77,0,1.05.47,1.05.89,0,.59-.42.88-.99.88s-.73-.29-.75-.34l.03.22v.31c0,.46.26.71.67.71.36,0,.54-.12.65-.32h.04s.36.11.36.11l.02.04c-.14.38-.54.6-1.05.6-.74,0-1.18-.35-1.18-1.04v-1.01Zm1.06.28c.33,0,.62-.11.62-.48,0-.21-.16-.43-.56-.43s-.64.23-.64.7v.11s.26.11.58.11Z"/><path class="cls-4" d="m44.29,39.88l-.15-.56.03-.04.37-.05.04.02.17.42c.02-.08.2-.49.82-.49l.03.04-.09.5-.04.03c-.08-.04-.19-.05-.31-.05s-.25.02-.38.05v2.43l-.03.03h-.42l-.03-.03v-2.31Z"/><path class="cls-4" d="m47.61,37.96l.03-.04.42-.06.03.02v3.65c0,.23.18.27.27.27h.02l.02.03-.07.38-.03.03h-.05c-.16,0-.65-.05-.65-.68v-3.6Z"/><path class="cls-4" d="m49,40.25c0-.67.46-1.06,1.14-1.06.77,0,1.05.47,1.05.89,0,.59-.42.88-.99.88s-.73-.29-.75-.34l.03.22v.31c0,.46.26.71.67.71.36,0,.54-.12.65-.32h.04s.36.11.36.11l.02.04c-.14.38-.54.6-1.05.6-.74,0-1.18-.35-1.18-1.04v-1.01Zm1.06.28c.33,0,.62-.11.62-.48,0-.21-.16-.43-.56-.43s-.64.23-.64.7v.11s.26.11.58.11Z"/><path class="cls-4" d="m54.24,38.65h-1.12l-.03-.03v-.42l.03-.03h2.81l.02.03-.11.42-.04.03h-1.07v3.54l-.03.03h-.44l-.03-.03v-3.54Z"/><path class="cls-4" d="m56,40.25c0-.67.46-1.06,1.14-1.06.77,0,1.05.47,1.05.89,0,.59-.42.88-.99.88s-.73-.29-.75-.34l.03.22v.31c0,.46.26.71.67.71.36,0,.54-.12.65-.32h.04s.36.11.36.11l.02.04c-.14.38-.54.6-1.05.6-.74,0-1.18-.35-1.18-1.04v-1.01Zm1.06.28c.33,0,.62-.11.62-.48,0-.21-.16-.43-.56-.43s-.64.23-.64.7v.11s.26.11.58.11Z"/><path class="cls-4" d="m58.86,40.23c0-.61.43-1.04,1.17-1.04.45,0,.85.2,1.02.61l-.02.04-.36.13h-.04c-.11-.22-.33-.34-.63-.34-.4,0-.66.25-.66.71v.83c0,.46.26.71.66.71.37,0,.56-.13.66-.32h.04s.36.11.36.11l.02.04c-.15.39-.54.6-1.05.6-.74,0-1.17-.43-1.17-1.04v-1.03Z"/><path class="cls-4" d="m61.81,39.88l-.15-.56.03-.04.37-.05.04.02.17.42c.02-.08.2-.49.84-.49.53,0,.95.35.95,1.04v1.97l-.03.03h-.42l-.03-.03v-1.87c0-.52-.33-.7-.67-.7-.13,0-.5.11-.61.14v2.43l-.03.03h-.42l-.03-.03v-2.31Z"/><path class="cls-4" d="m64.85,40.22c0-.67.49-1.04,1.15-1.04s1.15.37,1.15,1.04v1.03c0,.67-.49,1.04-1.15,1.04s-1.15-.37-1.15-1.04v-1.03Zm1.15,1.64c.42,0,.67-.25.67-.71v-.83c0-.46-.25-.7-.67-.7s-.67.24-.67.7v.83c0,.46.24.71.67.71Z"/><path class="cls-4" d="m67.95,37.96l.03-.04.42-.06.03.02v3.65c0,.23.18.27.27.27h.02l.02.03-.07.38-.03.03h-.05c-.16,0-.65-.05-.65-.68v-3.6Z"/><path class="cls-4" d="m69.34,40.22c0-.67.49-1.04,1.15-1.04s1.15.37,1.15,1.04v1.03c0,.67-.49,1.04-1.15,1.04s-1.15-.37-1.15-1.04v-1.03Zm1.15,1.64c.42,0,.67-.25.67-.71v-.83c0-.46-.25-.7-.67-.7s-.67.24-.67.7v.83c0,.46.24.71.67.71Z"/><path class="cls-4" d="m72.88,41.36s-.64-.17-.64-1.04c0-.7.43-1.09,1.13-1.09h.59l.66-.14.04.02.06.33-.02.04-.41.11c.2.12.29.43.29.73,0,.66-.43,1.11-1.15,1.11-.21,0-.38-.03-.38-.03,0,0-.04.09-.04.18,0,.24.13.38.36.38h.37c.58,0,.88.34.88.79,0,.57-.56.84-1.13.84s-1.07-.18-1.26-.58v-.04s.37-.16.37-.16h.04s.13.35.83.35c.43,0,.66-.2.66-.43,0-.17-.14-.34-.4-.34h-.37c-.5,0-.76-.28-.76-.55,0-.22.11-.4.27-.5Zm1.22-1.04c0-.47-.24-.7-.71-.7-.41,0-.68.23-.68.7s.24.7.68.7c.47,0,.71-.23.71-.7Z"/><path class="cls-4" d="m75.33,38.54v-.5l.03-.03h.5l.03.03v.5l-.03.03h-.5l-.03-.03Zm.04.78l.03-.04.42-.06.03.02v2.94l-.03.03h-.42l-.03-.03v-2.87Z"/><path class="cls-4" d="m76.65,40.25c0-.67.46-1.06,1.14-1.06.77,0,1.05.47,1.05.89,0,.59-.42.88-.99.88s-.73-.29-.75-.34l.03.22v.31c0,.46.26.71.67.71.36,0,.54-.12.65-.32h.04s.36.11.36.11l.02.04c-.14.38-.54.6-1.05.6-.74,0-1.18-.35-1.18-1.04v-1.01Zm1.06.28c.33,0,.62-.11.62-.48,0-.21-.16-.43-.56-.43s-.64.23-.64.7v.11s.26.11.58.11Z"/><path class="cls-4" d="m16.63,47.42c0-.68.46-1.04,1.09-1.04.25,0,.47.07.66.2l-.02-.26v-1.17l.03-.04.42-.06.03.02v3.75l.15.53-.03.04-.37.05-.04-.02-.17-.43c-.07.22-.29.5-.83.5s-.92-.37-.92-1.06v-1.01Zm1.12,1.64c.16,0,.61-.17.61-.17v-1.44c0-.42-.22-.64-.62-.64-.37,0-.63.24-.63.7v.82c0,.53.29.73.64.73Z"/><path class="cls-4" d="m19.67,47.45c0-.67.46-1.06,1.14-1.06.77,0,1.05.47,1.05.89,0,.59-.42.88-.99.88s-.73-.29-.75-.34l.03.22v.31c0,.46.26.71.67.71.36,0,.54-.12.65-.32h.04s.36.11.36.11l.02.04c-.14.38-.54.6-1.05.6-.74,0-1.18-.35-1.18-1.04v-1.01Zm1.06.28c.33,0,.62-.11.62-.48,0-.21-.16-.43-.56-.43s-.64.23-.64.7v.11s.26.11.58.11Z"/><path class="cls-4" d="m22.62,45.16l.03-.04.42-.06.03.02v3.65c0,.23.18.27.27.27h.02l.02.03-.07.38-.03.03h-.05c-.16,0-.65-.05-.65-.68v-3.6Z"/><path class="cls-4" d="m24.1,45.16l.03-.04.42-.06.03.02v3.65c0,.23.18.27.27.27h.02l.02.03-.07.38-.03.03h-.05c-.16,0-.65-.05-.65-.68v-3.6Z"/><path class="cls-4" d="m25.49,47.45c0-.67.46-1.06,1.14-1.06.77,0,1.05.47,1.05.89,0,.59-.42.88-.99.88s-.73-.29-.75-.34l.03.22v.31c0,.46.26.71.67.71.36,0,.54-.12.65-.32h.04s.36.11.36.11l.02.04c-.14.38-.54.6-1.05.6-.74,0-1.18-.35-1.18-1.04v-1.01Zm1.06.28c.33,0,.62-.11.62-.48,0-.21-.16-.43-.56-.43s-.64.23-.64.7v.11s.26.11.58.11Z"/><path class="cls-4" d="m30.74,45.85h-1.12l-.03-.03v-.42l.03-.03h2.81l.02.03-.11.42-.04.03h-1.07v3.54l-.03.03h-.44l-.03-.03v-3.54Z"/><path class="cls-4" d="m32.5,47.45c0-.67.46-1.06,1.14-1.06.77,0,1.05.47,1.05.89,0,.59-.42.88-.99.88s-.73-.29-.75-.34l.03.22v.31c0,.46.26.71.67.71.36,0,.54-.12.65-.32h.04s.36.11.36.11l.02.04c-.14.38-.54.6-1.05.6-.74,0-1.18-.35-1.18-1.04v-1.01Zm1.06.28c.33,0,.62-.11.62-.48,0-.21-.16-.43-.56-.43s-.64.23-.64.7v.11s.26.11.58.11Z"/><path class="cls-4" d="m35.48,47.08l-.15-.56.03-.04.37-.05.04.02.17.42c.02-.08.2-.49.82-.49l.03.04-.09.5-.04.03c-.08-.04-.19-.05-.31-.05s-.25.02-.38.05v2.43l-.03.03h-.42l-.03-.03v-2.31Z"/><path class="cls-4" d="m37.39,47.96c.22-.18.55-.23.94-.23h.21c.13,0,.22-.03.26-.06v-.28c0-.46-.28-.57-.62-.57-.23,0-.44.06-.59.18h-.05s-.2-.31-.2-.31v-.05c.23-.17.53-.26.85-.26.61,0,1.09.25,1.09.91v1.54l.15.53-.03.04-.37.05-.04-.02-.17-.43s-.14.5-.81.5c-.43,0-.91-.22-.91-.88,0-.3.12-.52.29-.65Zm.7,1.1c.3,0,.71-.17.71-.17v-1.01c-.07.23-.32.3-.53.3h-.14c-.21,0-.52.08-.52.44,0,.26.19.44.49.44Z"/><path class="cls-4" d="m40.66,49.56v1.12l-.03.04-.42.06-.03-.02v-3.67l-.15-.56.03-.04.37-.05.04.02.17.42c.02-.08.2-.49.84-.49.53,0,.92.35.92,1.04v1.03c0,.67-.47,1.04-1.1,1.04-.25,0-.49-.08-.66-.21l.02.28Zm.62-.5c.37,0,.64-.25.64-.71v-.83c0-.52-.3-.7-.64-.7-.13,0-.5.11-.61.14v1.47c0,.43.21.64.62.64Z"/><path class="cls-4" d="m43.16,45.74v-.5l.03-.03h.5l.03.03v.5l-.03.03h-.5l-.03-.03Zm.04.78l.03-.04.42-.06.03.02v2.94l-.03.03h-.42l-.03-.03v-2.87Z"/><path class="cls-4" d="m44.49,47.45c0-.67.46-1.06,1.14-1.06.77,0,1.05.47,1.05.89,0,.59-.42.88-.99.88s-.73-.29-.75-.34l.03.22v.31c0,.46.26.71.67.71.36,0,.54-.12.65-.32h.04s.36.11.36.11l.02.04c-.14.38-.54.6-1.05.6-.74,0-1.18-.35-1.18-1.04v-1.01Zm1.06.28c.33,0,.62-.11.62-.48,0-.21-.16-.43-.56-.43s-.64.23-.64.7v.11s.26.11.58.11Z"/><path class="cls-4" d="m49.96,45.43l.04-.03.5-.07.04.02,1.42,4.03-.02.03h-.48l-.04-.03-.33-.96h-1.67l-.32.96-.03.03h-.49l-.02-.03,1.4-3.96Zm.98,2.54l-.62-1.85-.06-.26-.06.26-.62,1.85h1.37Z"/><path class="cls-4" d="m52.09,46.52l.03-.04.46-.06.03.02.71,2.15.08.32.08-.32.68-2.09.04-.03.48-.06.02.03-1.1,2.98-.04.02-.37-.08-.04-.04-1.07-2.82Z"/><path class="cls-4" d="m55.31,47.96c.22-.18.55-.23.94-.23h.21c.13,0,.22-.03.26-.06v-.28c0-.46-.28-.57-.62-.57-.23,0-.44.06-.59.18h-.05s-.2-.31-.2-.31v-.05c.23-.17.53-.26.85-.26.61,0,1.09.25,1.09.91v1.54l.15.53-.03.04-.37.05-.04-.02-.17-.43s-.14.5-.81.5c-.43,0-.91-.22-.91-.88,0-.3.12-.52.29-.65Zm.7,1.1c.3,0,.71-.17.71-.17v-1.01c-.07.23-.32.3-.53.3h-.14c-.21,0-.52.08-.52.44,0,.26.19.44.49.44Z"/><path class="cls-4" d="m58.1,47.08l-.15-.56.03-.04.37-.05.04.02.17.42c.02-.08.2-.49.84-.49.53,0,.95.35.95,1.04v1.97l-.03.03h-.42l-.03-.03v-1.87c0-.52-.33-.7-.67-.7-.13,0-.5.11-.61.14v2.43l-.03.03h-.42l-.03-.03v-2.31Z"/><path class="cls-4" d="m61.02,49.12l1.45-2.23h-1.37l-.03-.03.07-.37.04-.03h1.88l.03.03v.28l-1.46,2.22h1.43l.03.03v.37l-.03.03h-1.92l-.04-.03-.06-.27Z"/><path class="cls-4" d="m63.89,47.96c.22-.18.55-.23.94-.23h.21c.13,0,.22-.03.26-.06v-.28c0-.46-.28-.57-.62-.57-.23,0-.44.06-.59.18h-.05s-.2-.31-.2-.31v-.05c.23-.17.53-.26.85-.26.61,0,1.09.25,1.09.91v1.54l.15.53-.03.04-.37.05-.04-.02-.17-.43s-.14.5-.81.5c-.43,0-.91-.22-.91-.88,0-.3.12-.52.29-.65Zm.7,1.1c.3,0,.71-.17.71-.17v-1.01c-.07.23-.32.3-.53.3h-.14c-.21,0-.52.08-.52.44,0,.26.19.44.49.44Z"/><path class="cls-4" d="m66.74,46.89h-.32l-.03-.03v-.37l.03-.03h.35l.05-.61.03-.04.34-.05.03.02v.67h1l.03.03-.11.37-.04.03h-.87v1.45c0,.41.2.71.53.71.23,0,.44-.19.44-.19h.04s.19.35.19.35v.04c-.21.14-.44.24-.71.24-.55,0-.96-.37-.96-1.12v-1.48Z"/><path class="cls-4" d="m68.83,47.45c0-.67.46-1.06,1.14-1.06.77,0,1.05.47,1.05.89,0,.59-.42.88-.99.88s-.73-.29-.75-.34l.03.22v.31c0,.46.26.71.67.71.36,0,.54-.12.65-.32h.04s.36.11.36.11l.02.04c-.14.38-.54.6-1.05.6-.74,0-1.18-.35-1.18-1.04v-1.01Zm1.06.28c.33,0,.62-.11.62-.48,0-.21-.16-.43-.56-.43s-.64.23-.64.7v.11s.26.11.58.11Z"/></g></g><g id="linee"><path id="path1" class="cls-2" d="m2.94,37.42l-.49-.03-.15-.14-.15-.14-.16.09-.16.09-.21-.08-.21-.08.05-.18.05-.18-.22-.1c-.22-.1-.29-.25-.13-.25.05,0,.11-.1.14-.22l.06-.22-.11-.13-.11-.13-.11.09-.11.09-.45-.15c-.25-.08-.45-.16-.45-.18,0-.07,1.21,0,1.31.08l.11.08.14-.27.14-.27h.13c.07,0,.18-.09.23-.19l.1-.19-.16-.12-.16-.12.11-.11.11-.11h1.42v-.2l.61-.06c.33-.03.67-.04.75,0l.14.05.05-.14.05-.14h.69s.69,0,.69,0l.25.13.25.13-.05-.22-.05-.22h.73l-.05.13-.05.13h.29v-.23l.8-.11c.44-.06.88-.09.98-.06l.18.06.2-.14c.32-.23.96-.16.96.09,0,.07.04.12.09.12.13,0,.11-.14-.05-.27l-.14-.11.12-.07c.06-.04.29-.07.51-.07h.4s-.17.13-.17.13l-.17.13h.24c.13,0,.27-.04.3-.09s.12-.09.21-.08.27-.03.41-.09c.14-.06.4-.12.58-.14s.6-.08.94-.12l.62-.09.54.05.54.05.22-.14.22-.14,1.15-.03,1.15-.03.23-.09c.12-.05.71-.11,1.29-.14.59-.03,1.29-.09,1.56-.14l.49-.1.59.06.59.06.15-.15.15-.15.78-.02.78-.02.18-.09c.1-.05.52-.12.94-.16s1.18-.1,1.69-.14,1.15-.1,1.42-.14l.48-.06.21.11.21.11.12-.16.12-.16.62-.04c.34-.02.81-.06,1.05-.09l.43-.05.13.19.13.19h.8l-.05.08s-.03.14,0,.22l.05.14.09-.05.09-.05-.05-.17-.05-.17.22-.08.22-.08v-.37l.51.03.51.03v.15s-.02.15-.02.15l.17-.1.17-.1.18.11.18.11v-.19l.11.04c.16.06.42-.1.42-.25,0-.07.05-.13.11-.14.06,0,.59-.04,1.18-.09s1.87-.12,2.85-.17c.98-.05,1.98-.11,2.23-.14.25-.03,1.29-.08,2.32-.13,1.03-.05,2.08-.12,2.34-.16s1.03-.09,1.72-.1,1.58-.06,1.99-.1c.41-.05,1.5-.11,2.43-.13.93-.03,1.9-.08,2.14-.12.25-.04,1.22-.08,2.16-.08.94,0,1.75-.02,1.79-.05.04-.03.47-.07.95-.1l.87-.05-.06.09-.06.09.23.06.23.06.16-.18.16-.18,1.24-.03c.68-.02,1.77-.03,2.42-.02h1.18s0-.07,0-.07v-.08h1.34v.11s0,.11,0,.11l.08-.12.08-.12.66-.03c.36-.01,1.78-.05,3.16-.08l2.51-.05.11.14c.15.18.23.17.45-.05l.18-.18h.33c.18.01,1.21,0,2.29-.03,1.08-.03,4.48-.07,7.56-.09l5.6-.03.33.07.33.07.09-.07c.05-.04.61-.1,1.25-.13l1.16-.06.22.13c.4.23.44.24.67.19l.22-.06v-.24l1.72-.04c.94-.02,5.96-.05,11.14-.05h9.42s.39.25.39.25c.4.27.7.34.7.17v-.1l.29.05c.16.03.43.07.6.1.17.03.41.08.54.1l.22.05-.2.08-.2.08v.27h.27v-.27h.45v.42l.23.12c.27.15.24.3-.06.34l-.23.03-.15-.15-.15-.15-.05.14c-.03.08-.04.26-.02.41l.04.27h-.11c-.06,0-.17-.02-.25-.05l-.14-.05.1-.18.1-.18-.12-.08c-.25-.16-.61-.05-.61.19v.16l.18.05.18.05v.39l-.16-.05-.16-.05-.29.15-.29.15-.23-.1c-.12-.06-.25-.08-.27-.06-.02.02-.12,0-.22-.05l-.17-.09-.13.11-.13.11-1.33.04-1.33.04-.14-.11-.14-.11-.13.1-.13.1h-.48c-.76-.02-3.83.07-4.25.12l-.38.05-.08-.22-.08-.22-.26.03c-.15.02-.33.08-.4.14l-.14.12-.36-.06-.36-.06-.32.15-.32.15-.07-.11-.07-.11-.11.14c-.06.08-.2.14-.3.14h-.19s.12-.08.12-.08l.12-.08-.11-.07-.11-.07-.08.15-.08.15-.14-.12-.14-.12-.04.11c-.04.13-.38.15-.38.02,0-.05-.04-.09-.09-.09h-.09l.06.09.06.09h-.3c-.16,0-1.65.02-3.31.03l-3.01.02v-.07s.04-.07.09-.07.09-.06.09-.13v-.13h-.71v.12c0,.06.04.15.08.2l.08.08-2.32.03c-2.35.03-2.66,0-2.67-.19,0-.06-.14-.17-.31-.26l-.31-.15-.27.09-.27.09v.19s0,.19,0,.19h-.6c-.33-.01-.95-.02-1.38-.03l-.78-.02.02-.1c.01-.05-.05-.11-.13-.13l-.16-.03v.25h-.17c-.09,0-.19-.05-.22-.11l-.04-.11v.11s-.01.11-.01.11h-.45v-.11s0-.11,0-.11l-.09.15-.09.15h-.77c-.42.01-.8.04-.85.07-.05.03-.31,0-.58-.05l-.5-.1-.1.1c-.12.12-.62.13-.74.02-.12-.11-.71-.19-.84-.1l-.12.07.06.1.06.1h-.91l.06-.09s.12-.09.21-.09h.15s-.11-.07-.11-.07c-.14-.09-.74-.02-.74.08,0,.04.05.08.11.09.06,0,.03.04-.08.08l-.19.08-2.53-.03-2.53-.03-.38-.1-.38-.1-.31.15-.31.15-.2-.05-.2-.05-.13.11-.13.11-2.42.03c-1.33.01-2.83.03-3.33.04h-.91s-.04.12-.04.12l-.04.11h-1.61c-.88,0-1.65.02-1.7.06s-.16.02-.24-.02l-.15-.08.1-.06.1-.06-.1-.13c-.14-.16-.3-.16-.44,0-.06.07-.2.13-.32.13s-.23.04-.27.1l-.06.1.12.07.12.07-.32.06-.32.06-.25-.09-.25-.09h.22c.12-.01.28-.06.36-.11l.13-.09-.3.06-.3.06-.17-.15-.17-.15-.12.07c-.06.04-.25.08-.42.1-.17.01-.35.07-.4.12l-.09.09h.17s.17,0,.17,0l-.11.07c-.06.04-.58.05-1.16.04-1.46-.04-1.52-.04-2.15.03-.31.03-.58.1-.61.14-.03.04-.13.08-.23.08h-.18l.06-.09.06-.09-.14-.05c-.07-.03-.18-.02-.24.01l-.1.06.12.08.12.08h-.8c-.44,0-.85-.03-.92-.07l-.11-.07.05-.14.05-.14-.27-.06c-.35-.08-.41-.05-.38.2l.03.2h-.25c-.14.02-.47.04-.74.05l-.49.02-.16-.19-.16-.19-.11.15c-.06.08-.26.21-.44.28l-.33.14-.45-.02c-.24,0-.47-.05-.51-.08l-.07-.07-.1.08c-.05.04-.22.1-.38.13l-.28.05-.17-.12-.17-.12-.13.12-.13.12-.62.06c-.34.03-1.03.07-1.52.09-.49.02-1,.06-1.13.08l-.24.05-.1-.12-.1-.12.06-.15.06-.15h-.29l-.09.23-.09.23-.23-.06-.23-.06.06.1.06.1-.45-.05-.45-.05-.32.13-.32.13-.05-.09s-.03-.13,0-.18l.06-.09h-.28l-.07.19-.07.19h-1.21c-.66,0-1.25-.01-1.3-.04l-.09-.06-.19.18c-.2.19-.46.24-.46.09,0-.05-.08-.09-.18-.09s-.18.03-.18.08v.08l-.77.06-.77.06-.12-.16-.12-.16-.18.16-.18.16-.05-.14-.05-.14h-.23c-.13,0-.37.06-.55.13s-.35.11-.4.08c-.04-.03-.22.06-.39.19l-.31.24-.41-.12c-.47-.13-1.1-.15-1.28-.04l-.12.07.17.06.17.06h-1.08s-1.08-.02-1.08-.02l-.13.1-.13.1h-.83s-.83,0-.83,0l-.17.15-.17.15-.34-.06c-.49-.08-1.02-.06-1.16.05-.06.05-.37.12-.68.14l-.57.05-.2-.11-.2-.11-.12.1c-.2.16-.67.27-1.43.32-.39.03-.86.09-1.04.13l-.33.08-.36-.08-.36-.08-.16.11-.16.11-.61.05c-.34.03-.65.09-.7.14l-.09.09-.32-.05c-.18-.03-.39-.1-.46-.17s-.18-.12-.24-.12-.12-.05-.14-.11l-.05-.11-.09.13c-.05.07-.13.19-.17.25l-.08.12-.2-.11-.2-.11-.14.18-.14.18-.4.11c-.22.06-.52.1-.66.1h-.25s-.11-.15-.11-.15l-.11-.14-.15.06c-.08.03-.13.09-.11.13.11.18-1.09.26-1.99.14l-.38-.05-.37.16-.37.16-.39-.07-.39-.07-.31.13-.31.13h-.49c-.27,0-.57-.04-.67-.1l-.18-.1-.24.22-.24.22h-.66s-.66.02-.66.02l-.14.13-.14.13-.44-.03c-.24-.02-.59.01-.78.06l-.33.1-.18-.21c-.1-.12-.18-.28-.18-.37v-.16h-.39l.15.11.15.11-.06.28-.06.28-.31.06c-.17.03-.39.03-.49,0l-.18-.06-.17.15-.17.15-.28-.06-.28-.06-.3.11-.3.11-.14-.2c-.17-.24-.34-.25-.55-.04-.37.37-.71.45-1.63.4h0Z"/></g><g id="cellula"><g id="Trace_Immagine"><path d="m98.83,11.23c.08.02.19.04.19.04.18.04.33.07.38.08.24.06.48.15.72.25.46.2.88.48,1.26.8.26.22.5.45.73.69,1.55,1.66,2.61,3.63,3.45,5.73,1.05,2.62,1.73,5.33,1.99,8.14.17,1.84.27,3.69.08,5.54-.23,2.27-.74,4.47-1.85,6.49-1.26,2.3-3.14,3.84-5.61,4.69-1.07.36-2.14.62-3.27.67-2.14.11-4.22-.25-6.3-.69-1.31-.27-2.64-.43-3.95-.66-.48-.08-.94-.23-1.4-.38-1.34-.43-2.2-1.36-2.72-2.65-.57-1.41-.92-2.89-1.17-4.38-.44-2.55-.7-5.13-.69-7.72,0-1.61.02-3.22.09-4.83.08-1.75.34-3.48.88-5.15.8-2.48,2.43-4.05,4.98-4.58,1.25-.26,2.52-.44,3.77-.69,1.55-.32,3.09-.68,4.64-1.01.18-.04.99-.19,1.88-.37.1-.02.1-.02.11-.02,0,0,.88-.16,1.82.02Zm-17.38,14.95c0,.93-.03,1.86,0,2.79.09,2.36.32,4.71.77,7.02.28,1.41.62,2.8,1.25,4.11.35.73.88,1.29,1.63,1.58.57.22,1.16.41,1.76.53,1.1.21,2.21.33,3.31.53,1.67.3,3.31.72,5.01.83,1.47.1,2.9-.07,4.31-.51,3.13-.96,5.19-3.04,6.33-6.09.68-1.83,1-3.74,1.09-5.68.11-2.5-.13-4.97-.66-7.41-.59-2.7-1.46-5.29-2.86-7.68-.69-1.18-1.49-2.26-2.53-3.16-.91-.78-1.95-1.2-3.15-1.06-.92.1-1.84.28-2.75.46-1.69.34-3.37.71-5.06,1.06-1.19.25-2.4.42-3.58.72-1.55.39-2.77,1.29-3.46,2.78-.34.75-.63,1.54-.82,2.33-.53,2.25-.63,4.55-.61,6.85Z"/><path class="cls-1" d="m81.45,26.18c0,.93-.03,1.86,0,2.79.09,2.36.32,4.71.77,7.02.28,1.41.62,2.8,1.25,4.11.35.73.88,1.29,1.63,1.58.57.22,1.16.41,1.76.53,1.1.21,2.21.33,3.31.53,1.67.3,3.31.72,5.01.83,1.47.1,2.9-.07,4.31-.51,3.13-.96,5.19-3.04,6.33-6.09.68-1.83,1-3.74,1.09-5.68.11-2.5-.13-4.97-.66-7.41-.59-2.7-1.46-5.29-2.86-7.68-.69-1.18-1.49-2.26-2.53-3.16-.91-.78-1.95-1.2-3.15-1.06-.92.1-1.84.28-2.75.46-1.69.34-3.37.71-5.06,1.06-1.19.25-2.4.42-3.58.72-1.55.39-2.77,1.29-3.46,2.78-.34.75-.63,1.54-.82,2.33-.53,2.25-.63,4.55-.61,6.85Z"/><path d="m97.27,25.09c-.44-.37-1.44.71-1.54,1.09-.17.72.44,1.37.66,2.07.32,1.02-.23,2.13-.96,2.91-.69.74-1.57,1.33-2.55,1.57s-2.07.12-2.92-.42c-.74-.48-1.27-1.26-1.54-2.1s-.28-1.75-.15-2.63c.15-.99.52-2.01,1.33-2.6.73-.53,1.69-.62,2.6-.64.91-.02,1.97.1,2.44.88.08.13.15.28.3.3.1.02.19-.04.28-.09.32-.2.62-.43.9-.68.13-.11.25-.24.32-.4.19-.45-.19-.94-.58-1.24-.67-.51-1.47-.85-2.28-1.09-1.28-.39-2.63-.56-3.96-.52-.31,0-.73-.05-.78-.36-.05-.29.28-.48.56-.57,1.25-.38,2.6-.34,3.88-.09s2.51.72,3.73,1.2c.21.08.55.1.58-.13,0-.09-.05-.17-.11-.24-.58-.71-1.43-1.16-2.32-1.42s-1.81-.33-2.72-.41c-1.09-.09-2.18-.18-3.27-.27-.11,0-.23-.03-.28-.12-.04-.07-.02-.15,0-.23.06-.28.14-.58.36-.77.24-.2.58-.23.89-.24,2.43-.1,4.9.12,7.18.97s4.35,2.38,5.56,4.49c.53.92,1.14,2.12.78,3.2-.13.39-.26.26-.54.04-.21-.18-.4-.39-.56-.61-.33-.46-.58-.97-.84-1.47-.47-.9-1.15-1.86-2.16-1.97-.2-.02-.47.04-.5.24-.01.1.04.19.09.28.98,1.6,2.36,3.04,2.68,4.89.17.97,0,1.98-.44,2.86-.3.61-.63,1.29-1.16,1.75-.13.11-.28.21-.43.28-.24.1-.32.15-.34-.12-.03-.41.34-.88.45-1.26.14-.52.25-1.06.31-1.59.13-1.04.09-2.16-.2-3.19-.23-.81-.66-1.63-1.43-1.97-.08-.03-.16-.06-.24-.03-.18.07-.14.33-.07.51.74,1.94.64,4.23-.41,6.02s-3.08,3.02-5.16,2.97c-.07,0-.16-.01-.2-.08-.03-.07,0-.14.05-.2.67-.95,1.96-1.16,2.92-1.82,1.04-.71,1.64-1.94,1.87-3.18.11-.61.14-1.23.13-1.86,0-.31-.02-.62-.04-.93-.01-.21.04-.74-.07-.91-.02-.03-.04-.06-.07-.08Zm-4.21,1.38c.01-.85-.25-1.28-.82-1.47-.61-.2-1.21.03-1.61.59-.59.84-.41,1.82.43,2.45.55.41,1.08.35,1.5-.2.34-.43.47-.94.49-1.38Z"/><path d="m96.82,39.55c-1.19,0-1.86-1.08-1.4-2.2.57-1.37,1.6-2.29,2.99-2.77.29-.1.63-.12.93-.08.73.09,1.16.7,1.05,1.43-.22,1.51-1.76,3.21-3.22,3.57-.13.03-.27.04-.35.05Z"/><path class="cls-3" d="m106.13,29.36c-.02.87-.31,1.72-.79,2.45-.41.62-1.02,1.24-1.84,1.1-.5-.09-.9-.31-1.15-.76-.31-.55-.25-1.11-.14-1.7.13-.7.32-1.39.59-2.05.19-.43.46-.92.92-1.12.49-.21,1.07-.16,1.57-.05.8.16.85,1.52.83,2.14Z"/><path d="m87.4,20.14c-.16,1.08-.78,2.25-1.89,3.12-.27.21-.62.35-.96.44-.75.2-1.9-.59-1.58-1.66.35-1.18.8-2.28,1.69-3.14.26-.26.6-.49.94-.6,1.04-.34,1.92.41,1.8,1.84Z"/><path class="cls-3" d="m83.5,36.29c0-.06,0-.12,0-.18,0-.23.01-.56.26-.67.32-.14.72-.13,1.04,0,.58.23.74.91,1.05,1.39.25.39.55.74.88,1.07.5.51,1.09.96,1.26,1.7.05.23.1.52-.02.74-.2.35-.78.27-1.11.23-1.66-.2-2.98-1.8-3.27-3.38-.05-.29-.07-.6-.08-.9Z"/><path d="m86.27,27.53c0,.8-.29,1.21-.91,1.34-.86.18-1.94-.76-1.87-1.65.04-.52.39-.89.99-1.05,1-.27,1.79.33,1.78,1.35Z"/><path d="m94.19,16.91c-.13,0-.29-.02-.38-.13-.21-.24-.07-.65-.21-.93-.31-.63-.15-1.02.53-1.23.45-.14.9-.13,1.34.03.3.11.56.33.63.65s0,.76-.25,1c-.21.2-.51.29-.78.37-.29.08-.58.22-.88.24Z"/><path class="cls-3" d="m88.44,17.09c-.15,0-.3,0-.45-.01-.22-.03-.39-.12-.5-.32-.1-.19-.15-.4-.2-.61-.04-.15-.07-.32-.04-.47.05-.26.26-.47.5-.56.25-.09.53-.07.77.03.25.09.46.25.66.43.21.19.44.4.46.69.02.22-.07.45-.23.61-.16.16-.4.2-.62.21-.12,0-.23,0-.35,0Z"/><path class="cls-3" d="m100.33,41.64c-.25.01-.52-.07-.76-.16-.31-.12-.57-.32-.79-.56-.34-.38-.19-.85.31-.89.45-.04.91-.02,1.35.06.82.14.71,1.52-.11,1.56Z"/><path d="m87.51,33.57c-.06.06-.15.09-.25.09-.43-.03-.94-.13-1.31-.37-.52-.34-.78-.91-.64-1.42.07-.24.25-.35.49-.29.7.17,1.12.72,1.49,1.31.09.14.22.26.27.42.03.11.01.2-.04.26Z"/><path d="m88.07,35.4c0-.14.04-.3.06-.4.04-.17.09-.34.15-.5s.16-.33.27-.48c.23-.31.53-.53.93-.47.46.07.42.76.35,1.09-.05.23-.15.44-.3.61s-.37.3-.6.38c-.1.04-.2.06-.3.08s-.2.04-.3.04c-.22,0-.27-.17-.26-.36Z"/><path class="cls-3" d="m102.61,19.55c.16,0,.33.02.49.08.39.15.71,1.09.51,1.53-.03.06-.08.12-.14.15-.32.2-.74.19-1.06-.01-.33-.2-.46-.57-.5-.94-.04-.31-.07-.69.32-.76.13-.03.26-.04.39-.05Z"/><path class="cls-3" d="m89.05,24.53c-.12,0-.25,0-.36-.06-.18-.09-.29-.28-.38-.46-.18-.35-.29-.67-.19-1.04.06-.22.43-.42.64-.45.34-.05.68.3.87.55.21.28.31.64.26.99-.06.36-.39.46-.71.47-.04,0-.08,0-.12,0Z"/><path class="cls-3" d="m90.62,41.33c-.16-.02-.31-.1-.44-.2-.2-.16-.33-.39-.45-.61-.07-.13-.13-.27-.14-.41-.03-.34.23-.68.56-.77s.71.05.93.31c.42.49.46,1.83-.47,1.68Z"/><path class="cls-3" d="m102.19,38.97c-.08,0-.16,0-.23,0-.46-.04-.91-.55-.71-1.02.24-.57,1.16-.6,1.6-.27.21.16.29.4.22.66-.11.41-.48.6-.87.63Z"/><path d="m94.35,36.34c-.01.36-.21.77-.48.8-.23.02-.44-.14-.55-.33-.12-.19-.13-.47-.02-.68.13-.24.46-.41.73-.37.24.04.33.29.32.57Z"/><path d="m102.18,34.86c-.21-.07-.4-.31-.16-.48.29-.2.6-.38.92-.53.11-.05.21-.01.25.11.2.58-.5,1.08-1.01.9Z"/><path d="m98.21,15.71c-.02.1-.05.23-.14.34-.03.04-.15.18-.31.18-.07,0-.14-.03-.21-.07-.16-.1-.28-.23-.37-.4-.04-.08-.07-.18-.05-.27.03-.09.11-.16.19-.21.15-.09.32-.16.49-.19.11-.02.17-.02.23.02.18.1.17.41.17.45,0,.06-.01.11-.02.15Z"/><path class="cls-1" d="m93.06,26.47c-.02.44-.15.95-.49,1.38-.43.54-.95.61-1.5.2-.84-.63-1.01-1.61-.43-2.45.4-.57,1-.79,1.61-.59.57.18.83.62.82,1.47Z"/></g></g><g id="Ltta"><path class="cls-2" d="m16.05,4.79c.31,0,.46.46.46,1.39h.46l.7-.46.23.23-1.16,13.02c.98-.46,3.62-1.01,7.9-1.63h.23v.23c-5.42.88-8.13,1.58-8.13,2.09l2.56-.7v.23l4.42-.93v.23l.23-.23h.23l.23.23,1.16-.23h.93l1.63.23v.23c0,.46-1.16.85-3.49,1.16v.23l.23-.23h.23l1.63.23.23-.23v.7l-7.67,1.86-4.88,1.86h-.7l-.93-1.16h-.23v-.23c0-.39.31-.62.93-.7v-.7l-.7-.93.93-10.46h.23v.93l-.23,1.63h.46l-.46,3.02.23.23-.23.93v1.16h.23l.93-12.32c.31,0,.46-.23.46-.7l.23-.23h.46Z"/><path class="cls-2" d="m42.58,4.5l.7.23v.46h-.7l.46.7c-.34.77-1.58,1.16-3.72,1.16l-1.63.23-.23.7h.23c-.46,1.1-1.39,6.06-2.79,14.88l.7,3.02h-.23c-.35,0-.66-.77-.93-2.32l.23-2.32v-.23h-.23v.46c-.46,0-.7.16-.7.46v.23l.46,3.72v.23h-.46l-.93-.7-.23.23h-.23c-.62-1.34-.93-2.5-.93-3.49l.23.23h.23l-.46-1.63.7-.23v-1.16h-.46v-.23c.46,0,.7-.15.7-.46v-.23h-.46c0-1.24.23-1.86.7-1.86v-3.02c.25-.22.56-1.85.93-4.88l-1.63.23-3.25-.23v-.23l1.16-.23v.23l.23-.23h3.49v-.7l-3.72.46-.23-.23h-.23l-1.39.23-.7-.46.23-1.16-.23-.23c0-.77.93-1.16,2.79-1.16l12.55-.46Zm-9.99,13.71l-.46,5.11h.46l-.23-1.16v-.46l.46-.7h-.23l.23-.23v-.23l-.23-.23v-.23l.46-.93-.23-.93h-.23Zm8.6-13.02v.23h.93v-.23h-.93Z"/><path class="cls-2" d="m56.54,4.5l.7.23v.46h-.7l.46.7c-.34.77-1.58,1.16-3.72,1.16l-1.63.23-.23.7h.23c-.46,1.1-1.39,6.06-2.79,14.88l.7,3.02h-.23c-.35,0-.66-.77-.93-2.32l.23-2.32v-.23h-.23v.46c-.46,0-.7.16-.7.46v.23l.46,3.72v.23h-.46l-.93-.7-.23.23h-.23c-.62-1.34-.93-2.5-.93-3.49l.23.23h.23l-.46-1.63.7-.23v-1.16h-.46v-.23c.46,0,.7-.15.7-.46v-.23h-.46c0-1.24.23-1.86.7-1.86v-3.02c.25-.22.56-1.85.93-4.88l-1.63.23-3.25-.23v-.23l1.16-.23v.23l.23-.23h3.49v-.7l-3.72.46-.23-.23h-.23l-1.39.23-.7-.46.23-1.16-.23-.23c0-.77.93-1.16,2.79-1.16l12.55-.46Zm-9.99,13.71l-.46,5.11h.46l-.23-1.16v-.46l.46-.7h-.23l.23-.23v-.23l-.23-.23v-.23l.46-.93-.23-.93h-.23Zm8.6-13.02v.23h.93v-.23h-.93Z"/><path class="cls-2" d="m65.57,3.86c.1.46.72.7,1.86.7l1.86,8.13h1.63v.23l-1.39.23v.23c.46,0,.7.16.7.46h1.86v.23c0,.35-.77.66-2.32.93l.46,1.39-.23.7.23,1.39-.23.23h.23l-.23.23.23,2.79v1.39l-.23-.23h-.23l.7,3.49h-.46c0-.46-.16-.7-.46-.7v.23l.23.7h-.23l-.23-.23h-.23c0,.46-.16.7-.46.7l-1.16-3.95h-.23v.93h-.23l-.46-2.79.7.46v-.23c-.13-1.39-.36-2.09-.7-2.09l.23-.23v-.7h-.46v.7h-.23v-.93l.23-.23h-.23l-.23.23v-.93h.23l.23.23h.23l-.23-.23v-1.39l-5.11,1.16v.46l1.63-.46.93.23,1.16-.23v.46c-3.25.58-4.88,1.36-4.88,2.32-.41,1.7-.88,2.79-1.39,3.25v.46h-.7l-.23-.23h-.23v.23l-.7-.46.46-1.39h-.23c-.46,0-.7.62-.7,1.86l-.46-.46.23-1.39-.7-.7,3.95-9.53h.23c0,.46.16.7.46.7l.23-1.16-.23.23h-.23v-.93l.23-1.16.23.23h.23l-.23-.23v-.23l.46-.93h.23l.23.23h.23v-.23c0-.31-.23-.46-.7-.46l1.16-3.25h.93l-.23.23v.23c1.08-.62,2.08-.93,3.02-.93Zm-6.74,9.99l-.23.93h.23l.46-.93h-.46Zm.7-1.16l-.23.23v.46h.23l.23-.7h-.23Zm1.39.93l-.23.93h.23l.23-.23v-.7h-.23Zm1.16-3.02l-.46,1.63-.23-.23h-.23l.23.93h.23l.7-2.09v-.23h-.23Zm2.09-1.39l-1.86,4.88h.46c1.55,0,2.4-.46,2.56-1.39l-.93-3.49h-.23Zm-1.39,5.35v.23h.46c1.39-.15,2.09-.39,2.09-.7h-.23l-2.32.46Zm3.25,5.11h.46v1.39h-.23l-.23-1.39Zm.93,2.32v.46l.7-.23v-.46l-.7.23Zm2.32-.7v.46l.23.93h.23v-.46l-.23-.93h-.23Z"/></g></svg>
