<?xml version="1.0" encoding="UTF-8"?><svg id="Livello_2" xmlns="http://www.w3.org/2000/svg" xmlns:xlink="http://www.w3.org/1999/xlink" viewBox="0 0 645.72 157.94"><defs><style>.cls-1{fill:none;}.cls-2{clip-path:url(#clippath);}.cls-3{fill:#00354e;}.cls-4{fill:#01853e;}.cls-5{fill:#ee730b;}.cls-6{fill:#b6cee8;}.cls-7{fill:#d21216;}.cls-8{fill:#db0812;}.cls-9{fill:#e4067d;}.cls-10{fill:#243981;}.cls-11{fill:#62a0d0;}.cls-12{fill:#74ae80;}</style><clipPath id="clippath"><rect class="cls-1" width="645.72" height="157.94"/></clipPath></defs><g id="Livello_1-2"><polygon class="cls-3" points="197.13 22.88 182.81 22.88 182.81 13.33 221.81 13.33 221.81 22.88 207.49 22.88 207.49 60.4 197.13 60.4 197.13 22.88"/><polygon class="cls-3" points="229.75 13.33 265.19 13.33 265.19 22.54 239.97 22.54 239.97 32.09 262.16 32.09 262.16 41.3 239.97 41.3 239.97 51.19 265.52 51.19 265.52 60.4 229.75 60.4 229.75 13.33"/><g class="cls-2"><path class="cls-3" d="m296.86,61.21c-3.45,0-6.66-.63-9.62-1.88-2.96-1.25-5.51-2.97-7.67-5.14-2.15-2.17-3.83-4.74-5.04-7.7-1.21-2.96-1.82-6.12-1.82-9.48v-.14c0-3.36.6-6.51,1.82-9.45,1.21-2.93,2.89-5.51,5.04-7.73,2.15-2.22,4.73-3.97,7.73-5.24,3.01-1.28,6.32-1.92,9.95-1.92,2.2,0,4.2.18,6.02.54,1.82.36,3.46.85,4.94,1.48,1.48.63,2.85,1.39,4.1,2.29,1.25.9,2.42,1.88,3.5,2.96l-6.59,7.6c-1.84-1.66-3.71-2.96-5.62-3.9-1.91-.94-4.04-1.41-6.42-1.41-1.98,0-3.8.38-5.48,1.14-1.68.76-3.13,1.82-4.34,3.16-1.21,1.34-2.15,2.9-2.83,4.67-.67,1.77-1.01,3.66-1.01,5.68v.13c0,2.02.34,3.92,1.01,5.72.67,1.79,1.6,3.36,2.79,4.71,1.19,1.34,2.62,2.41,4.3,3.19,1.68.78,3.53,1.18,5.55,1.18,2.69,0,4.96-.49,6.83-1.48,1.86-.99,3.71-2.33,5.55-4.04l6.59,6.66c-1.21,1.3-2.47,2.47-3.77,3.5-1.3,1.03-2.73,1.92-4.27,2.66-1.55.74-3.24,1.3-5.08,1.68-1.84.38-3.9.57-6.19.57"/><polygon class="cls-3" points="324.43 13.33 333.98 13.33 356.04 42.31 356.04 13.33 366.26 13.33 366.26 60.4 357.45 60.4 334.65 30.48 334.65 60.4 324.43 60.4 324.43 13.33"/><path class="cls-3" d="m400.42,61.21c-3.63,0-6.97-.64-10.02-1.92-3.05-1.28-5.68-3-7.9-5.18-2.22-2.17-3.94-4.73-5.18-7.67-1.23-2.94-1.85-6.09-1.85-9.45v-.13c0-3.36.63-6.51,1.88-9.45,1.26-2.94,2.99-5.51,5.21-7.73,2.22-2.22,4.86-3.97,7.94-5.25,3.07-1.28,6.42-1.92,10.05-1.92s6.97.64,10.02,1.92c3.05,1.28,5.68,3,7.9,5.18,2.22,2.18,3.95,4.73,5.18,7.67,1.23,2.94,1.85,6.09,1.85,9.45v.13c0,3.36-.63,6.51-1.88,9.45-1.26,2.94-2.99,5.51-5.21,7.73-2.22,2.22-4.87,3.97-7.93,5.25-3.07,1.28-6.42,1.92-10.06,1.92m.14-9.55c2.06,0,3.97-.38,5.72-1.14,1.75-.76,3.24-1.82,4.47-3.16,1.23-1.35,2.2-2.9,2.89-4.67.69-1.77,1.04-3.67,1.04-5.68v-.13c0-2.02-.35-3.92-1.04-5.72-.7-1.79-1.68-3.36-2.96-4.71-1.28-1.35-2.79-2.41-4.54-3.19-1.75-.78-3.65-1.18-5.72-1.18s-4.02.38-5.75,1.14c-1.73.76-3.2,1.82-4.44,3.16-1.23,1.35-2.2,2.9-2.89,4.67-.7,1.77-1.04,3.66-1.04,5.68v.13c0,2.02.35,3.92,1.04,5.72.69,1.79,1.68,3.36,2.96,4.71,1.28,1.35,2.78,2.41,4.51,3.19,1.72.79,3.64,1.18,5.75,1.18"/><path class="cls-3" d="m434.72,13.33h19.23c2.82,0,5.35.39,7.57,1.18,2.22.79,4.1,1.89,5.65,3.33,1.55,1.44,2.74,3.15,3.57,5.14.83,2,1.24,4.2,1.24,6.62v.13c0,2.73-.49,5.13-1.48,7.19-.99,2.06-2.34,3.79-4.07,5.18-1.73,1.39-3.74,2.43-6.05,3.13-2.31.7-4.79,1.04-7.43,1.04h-7.87v14.12h-10.35V13.33Zm18.56,23.74c2.6,0,4.62-.68,6.05-2.04,1.43-1.36,2.15-3.04,2.15-5.05v-.13c0-2.32-.75-4.08-2.25-5.29-1.5-1.2-3.55-1.81-6.15-1.81h-8v14.32h8.2Z"/><path class="cls-3" d="m502.5,61.21c-3.63,0-6.97-.64-10.02-1.92-3.05-1.28-5.68-3-7.9-5.18-2.22-2.17-3.95-4.73-5.18-7.67-1.23-2.94-1.85-6.09-1.85-9.45v-.13c0-3.36.63-6.51,1.88-9.45,1.26-2.94,2.99-5.51,5.21-7.73,2.22-2.22,4.86-3.97,7.93-5.25,3.07-1.28,6.42-1.92,10.05-1.92s6.97.64,10.02,1.92c3.05,1.28,5.68,3,7.9,5.18,2.22,2.18,3.95,4.73,5.18,7.67,1.23,2.94,1.85,6.09,1.85,9.45v.13c0,3.36-.63,6.51-1.88,9.45-1.26,2.94-2.99,5.51-5.21,7.73-2.22,2.22-4.86,3.97-7.93,5.25-3.07,1.28-6.42,1.92-10.05,1.92m.13-9.55c2.06,0,3.97-.38,5.72-1.14,1.75-.76,3.24-1.82,4.47-3.16,1.23-1.35,2.19-2.9,2.89-4.67.69-1.77,1.04-3.67,1.04-5.68v-.13c0-2.02-.35-3.92-1.04-5.72-.7-1.79-1.68-3.36-2.96-4.71-1.28-1.35-2.79-2.41-4.54-3.19-1.75-.78-3.65-1.18-5.71-1.18s-4.03.38-5.75,1.14c-1.73.76-3.21,1.82-4.44,3.16-1.23,1.35-2.2,2.9-2.89,4.67-.7,1.77-1.04,3.66-1.04,5.68v.13c0,2.02.35,3.92,1.04,5.72.69,1.79,1.68,3.36,2.96,4.71,1.28,1.35,2.78,2.41,4.51,3.19,1.73.79,3.64,1.18,5.75,1.18"/><polygon class="cls-3" points="536.8 13.33 547.15 13.33 547.15 50.99 570.62 50.99 570.62 60.4 536.8 60.4 536.8 13.33"/><path class="cls-3" d="m598.6,61.21c-3.63,0-6.97-.64-10.02-1.92-3.05-1.28-5.68-3-7.9-5.18-2.22-2.17-3.94-4.73-5.18-7.67-1.24-2.94-1.85-6.09-1.85-9.45v-.13c0-3.36.63-6.51,1.88-9.45,1.26-2.94,2.99-5.51,5.21-7.73,2.22-2.22,4.86-3.97,7.93-5.25,3.07-1.28,6.42-1.92,10.05-1.92s6.97.64,10.02,1.92c3.05,1.28,5.68,3,7.9,5.18,2.22,2.18,3.95,4.73,5.18,7.67,1.23,2.94,1.85,6.09,1.85,9.45v.13c0,3.36-.63,6.51-1.88,9.45-1.26,2.94-2.99,5.51-5.21,7.73-2.22,2.22-4.86,3.97-7.93,5.25-3.07,1.28-6.42,1.92-10.05,1.92m.13-9.55c2.06,0,3.97-.38,5.72-1.14,1.75-.76,3.24-1.82,4.47-3.16,1.23-1.35,2.19-2.9,2.89-4.67.69-1.77,1.04-3.67,1.04-5.68v-.13c0-2.02-.35-3.92-1.04-5.72-.7-1.79-1.68-3.36-2.96-4.71-1.28-1.35-2.79-2.41-4.54-3.19-1.75-.78-3.65-1.18-5.71-1.18s-4.03.38-5.75,1.14c-1.73.76-3.21,1.82-4.44,3.16-1.23,1.35-2.2,2.9-2.89,4.67-.7,1.77-1.04,3.66-1.04,5.68v.13c0,2.02.35,3.92,1.04,5.72.7,1.79,1.68,3.36,2.96,4.71s2.78,2.41,4.51,3.19c1.73.79,3.64,1.18,5.75,1.18"/><polygon class="cls-8" points="107.47 62.39 103.49 60.09 116.68 37.24 104.15 15.54 79.09 15.54 76.04 20.83 71.81 18.95 76.43 10.94 106.81 10.94 121.99 37.24 107.47 62.39"/><polygon class="cls-8" points="107.47 62.39 103.49 60.09 116.68 37.24 104.15 15.54 79.09 15.54 76.04 20.83 71.81 18.95 76.43 10.94 106.81 10.94 121.99 37.24 107.47 62.39"/><polygon class="cls-8" points="94.67 56.16 90.1 56.64 87.34 30.4 64.45 20.2 44.17 34.93 44.81 41.01 40.29 41.98 39.32 32.77 63.89 14.92 91.64 27.28 94.67 56.16"/><polygon class="cls-8" points="80.65 58.64 77.24 61.72 59.58 42.11 35.07 47.32 27.32 71.15 31.41 75.69 28.32 79.13 22.13 72.26 31.51 43.37 61.22 37.06 80.65 58.64"/><polygon class="cls-8" points="70.77 68.89 69.82 73.38 44 67.9 27.23 86.52 34.98 110.36 40.95 111.63 40.48 116.23 31.43 114.3 22.04 85.42 42.36 62.85 70.77 68.89"/><polygon class="cls-8" points="68.8 82.98 70.67 87.18 46.56 97.92 43.94 122.84 64.22 137.57 69.8 135.09 72.12 139.09 63.66 142.85 39.09 125 42.27 94.8 68.8 82.98"/><polygon class="cls-8" points="75.49 95.55 79.47 97.85 66.28 120.7 78.81 142.4 103.87 142.4 106.92 137.11 111.15 138.99 106.52 147 76.15 147 60.97 120.7 75.49 95.55"/><polygon class="cls-8" points="88.29 101.78 92.86 101.3 95.62 127.54 118.51 137.74 138.79 123.01 138.15 116.93 142.67 115.96 143.64 125.17 119.07 143.02 91.32 130.67 88.29 101.78"/><polygon class="cls-8" points="102.3 99.3 105.72 96.23 123.38 115.84 147.89 110.62 155.63 86.79 151.55 82.25 154.64 78.81 160.83 85.69 151.44 114.57 121.74 120.89 102.3 99.3"/><polygon class="cls-8" points="112.19 89.06 113.14 84.56 138.95 90.05 155.72 71.42 147.98 47.59 142 46.32 142.48 41.72 151.53 43.64 160.92 72.52 140.59 95.1 112.19 89.06"/><polygon class="cls-8" points="114.16 74.96 112.29 70.76 136.4 60.03 139.02 35.1 118.74 20.37 113.16 22.85 110.84 18.85 119.3 15.09 143.87 32.94 140.69 63.15 114.16 74.96"/><rect class="cls-5" x="459.35" y="125.02" width="9.17" height="19.15"/><rect class="cls-11" x="481.22" y="125.02" width="9.17" height="19.15"/><rect class="cls-6" x="503.1" y="125.02" width="9.17" height="19.15"/><rect class="cls-7" x="524.97" y="125.02" width="9.17" height="19.15"/><rect class="cls-10" x="546.84" y="125.02" width="9.17" height="19.15"/><rect class="cls-4" x="568.72" y="125.02" width="9.17" height="19.15"/><rect class="cls-12" x="590.59" y="125.02" width="9.17" height="19.15"/><rect class="cls-9" x="612.47" y="125.02" width="9.17" height="19.15"/><polygon class="cls-3" points="185.68 125.34 199.86 125.34 199.86 129.03 189.77 129.03 189.77 132.84 198.65 132.84 198.65 136.53 189.77 136.53 189.77 140.48 199.99 140.48 199.99 144.17 185.68 144.17 185.68 125.34"/><polygon class="cls-3" points="203.71 125.34 208.16 125.34 213.11 133.3 218.05 125.34 222.51 125.34 222.51 144.17 218.42 144.17 218.42 131.88 213.13 139.92 213.02 139.92 207.79 131.96 207.79 144.17 203.71 144.17 203.71 125.34"/><rect class="cls-3" x="227.24" y="125.34" width="4.14" height="18.83"/><polygon class="cls-3" points="236.09 125.34 240.23 125.34 240.23 140.4 249.62 140.4 249.62 144.17 236.09 144.17 236.09 125.34"/><rect class="cls-3" x="252.93" y="125.34" width="4.14" height="18.83"/><path class="cls-3" d="m268.24,125.21h3.82l8.07,18.96h-4.33l-1.72-4.22h-7.96l-1.72,4.22h-4.22l8.07-18.96Zm4.36,11.08l-2.5-6.1-2.5,6.1h5Z"/><path class="cls-3" d="m294.56,125.34h8.61c2.38,0,4.21.64,5.49,1.91,1.08,1.08,1.62,2.51,1.62,4.3v.05c0,1.52-.37,2.77-1.12,3.73-.74.96-1.72,1.66-2.92,2.11l4.6,6.73h-4.84l-4.03-6.02h-3.26v6.02h-4.14v-18.83Zm8.34,9.15c1.02,0,1.81-.24,2.35-.72.55-.48.82-1.12.82-1.93v-.05c0-.89-.29-1.56-.86-2.01-.57-.45-1.37-.67-2.39-.67h-4.12v5.38h4.2Z"/><path class="cls-3" d="m323.15,144.49c-1.45,0-2.79-.25-4.01-.77-1.22-.51-2.27-1.2-3.16-2.07-.89-.87-1.58-1.89-2.07-3.07-.49-1.18-.74-2.43-.74-3.78v-.05c0-1.34.25-2.6.75-3.78.5-1.17,1.2-2.2,2.09-3.09.89-.89,1.94-1.59,3.17-2.1,1.23-.51,2.57-.77,4.02-.77s2.79.26,4.01.77c1.22.51,2.27,1.2,3.16,2.07.89.87,1.58,1.89,2.07,3.07.49,1.18.74,2.43.74,3.78v.05c0,1.35-.25,2.61-.75,3.78-.5,1.18-1.2,2.21-2.08,3.09-.89.89-1.95,1.59-3.17,2.1-1.23.51-2.57.77-4.02.77m.05-3.82c.82,0,1.59-.15,2.29-.46.7-.3,1.3-.73,1.79-1.26.49-.54.88-1.16,1.16-1.87.28-.71.42-1.47.42-2.27v-.05c0-.81-.14-1.57-.42-2.29-.28-.72-.67-1.34-1.18-1.88-.51-.54-1.12-.97-1.81-1.28-.7-.31-1.46-.47-2.29-.47s-1.61.15-2.3.46c-.69.31-1.28.73-1.78,1.26-.49.54-.88,1.16-1.16,1.87-.28.71-.42,1.47-.42,2.27v.05c0,.81.14,1.57.42,2.29.28.72.67,1.35,1.18,1.88.51.54,1.11.96,1.8,1.28.69.31,1.46.47,2.3.47"/><polygon class="cls-3" points="336.87 125.34 341.33 125.34 346.27 133.3 351.21 125.34 355.67 125.34 355.67 144.17 351.59 144.17 351.59 131.88 346.3 139.92 346.19 139.92 340.96 131.96 340.96 144.17 336.87 144.17 336.87 125.34"/><path class="cls-3" d="m366.68,125.21h3.82l8.07,18.96h-4.33l-1.72-4.22h-7.96l-1.72,4.22h-4.22l8.07-18.96Zm4.36,11.08l-2.5-6.1-2.5,6.1h5Z"/><path class="cls-3" d="m390.53,144.49c-1.47,0-2.81-.24-4.02-.73-1.21-.48-2.25-1.16-3.12-2.02-.87-.86-1.55-1.88-2.03-3.07-.48-1.18-.73-2.48-.73-3.87v-.05c0-1.35.25-2.6.74-3.78.49-1.18,1.18-2.21,2.06-3.09.88-.89,1.92-1.59,3.12-2.1,1.2-.51,2.52-.77,3.95-.77.84,0,1.61.06,2.3.17.69.12,1.33.28,1.92.5.59.22,1.15.48,1.67.81.52.32,1.02.69,1.51,1.1l-2.61,3.15c-.36-.31-.72-.57-1.08-.81s-.73-.43-1.12-.59c-.39-.16-.8-.29-1.25-.38-.45-.09-.94-.13-1.48-.13-.75,0-1.46.16-2.11.47-.65.31-1.23.74-1.72,1.27-.49.53-.88,1.15-1.16,1.85-.28.71-.42,1.47-.42,2.27v.05c0,.86.14,1.65.42,2.38.28.73.67,1.36,1.18,1.9.51.54,1.11.95,1.8,1.25.69.3,1.45.44,2.3.44,1.54,0,2.84-.38,3.9-1.13v-2.69h-4.17v-3.58h8.18v8.18c-.97.83-2.12,1.53-3.46,2.11-1.34.58-2.87.88-4.59.88"/><polygon class="cls-3" points="402.56 125.34 406.38 125.34 415.2 136.93 415.2 125.34 419.29 125.34 419.29 144.17 415.77 144.17 406.65 132.2 406.65 144.17 402.56 144.17 402.56 125.34"/><path class="cls-3" d="m430.26,125.21h3.82l8.07,18.96h-4.33l-1.72-4.22h-7.96l-1.72,4.22h-4.22l8.07-18.96Zm4.36,11.08l-2.5-6.1-2.5,6.1h5Z"/><rect class="cls-3" x="281.84" y="134.5" width="8.03" height="3.57"/><polygon class="cls-3" points="185.78 78.29 208.06 78.29 208.06 84.14 192.22 84.14 192.22 90.37 206.18 90.37 206.18 96.22 192.22 96.22 192.22 107.55 185.78 107.55 185.78 78.29"/><polygon class="cls-3" points="212.79 78.29 234.82 78.29 234.82 84.02 219.14 84.02 219.14 89.95 232.94 89.95 232.94 95.68 219.14 95.68 219.14 101.82 235.03 101.82 235.03 107.55 212.79 107.55 212.79 78.29"/><path class="cls-3" d="m240.38,78.29h13.38c3.71,0,6.55.99,8.53,2.97,1.67,1.67,2.51,3.9,2.51,6.69v.08c0,2.37-.58,4.3-1.73,5.79-1.16,1.49-2.67,2.59-4.54,3.28l7.15,10.45h-7.52l-6.27-9.36h-5.06v9.36h-6.44v-29.26Zm12.96,14.21c1.59,0,2.81-.37,3.66-1.12.85-.75,1.27-1.75,1.27-2.99v-.09c0-1.39-.45-2.42-1.34-3.12-.89-.69-2.13-1.04-3.72-1.04h-6.4v8.36h6.52Z"/><path class="cls-3" d="m270.19,78.29h13.38c3.71,0,6.55.99,8.53,2.97,1.67,1.67,2.51,3.9,2.51,6.69v.08c0,2.37-.58,4.3-1.73,5.79-1.16,1.49-2.67,2.59-4.54,3.28l7.15,10.45h-7.52l-6.27-9.36h-5.06v9.36h-6.44v-29.26Zm12.96,14.21c1.59,0,2.81-.37,3.66-1.12.85-.75,1.27-1.75,1.27-2.99v-.09c0-1.39-.45-2.42-1.34-3.12-.89-.69-2.13-1.04-3.72-1.04h-6.4v8.36h6.52Z"/><path class="cls-3" d="m310.02,78.08h5.94l12.54,29.47h-6.73l-2.67-6.56h-12.38l-2.67,6.56h-6.56l12.54-29.47Zm6.77,17.22l-3.89-9.49-3.89,9.49h7.78Z"/><path class="cls-3" d="m332.6,78.29h13.38c3.71,0,6.55.99,8.53,2.97,1.67,1.67,2.51,3.9,2.51,6.69v.08c0,2.37-.58,4.3-1.73,5.79-1.16,1.49-2.67,2.59-4.54,3.28l7.15,10.45h-7.52l-6.27-9.36h-5.06v9.36h-6.44v-29.26Zm12.96,14.21c1.59,0,2.81-.37,3.66-1.12.85-.75,1.27-1.75,1.27-2.99v-.09c0-1.39-.45-2.42-1.34-3.12-.89-.69-2.13-1.04-3.72-1.04h-6.4v8.36h6.52Z"/><path class="cls-3" d="m372.44,78.08h5.94l12.54,29.47h-6.73l-2.67-6.56h-12.38l-2.67,6.56h-6.56l12.54-29.47Zm6.77,17.22l-3.89-9.49-3.89,9.49h7.78Z"/></g></g></svg>
