<?xml version="1.0" encoding="UTF-8"?><svg id="Livello_2" xmlns="http://www.w3.org/2000/svg" viewBox="0 0 1688.32 341.67"><defs><style>.cls-1{fill:#ee730d;}.cls-2{fill:#b6cee8;}.cls-3{fill:#d21317;}.cls-4{fill:#e4097d;}.cls-5{fill:#243980;}.cls-6{fill:#06863e;}.cls-7{fill:#103753;}.cls-8{fill:#62a1d0;}.cls-9{fill:#74ae80;}</style></defs><g id="Livello_1-2"><path class="cls-7" d="m0,1.46h41.9c11.65,0,20.69,3.06,26.71,8.69,5.11,4.77,7.86,11.5,7.86,19.58v.24c0,13.83-7.99,22.51-19.64,26.55l22.39,30.59h-23.57l-19.64-27.41h-15.84v27.41H.01V1.46h-.01Zm40.59,41.6c9.82,0,15.45-4.89,15.45-12.11v-.24c0-8.08-6.02-12.24-15.84-12.24h-20.03v24.59h20.43-.01Z"/><path class="cls-7" d="m94.67,1.46h69.13v16.76h-49.1v17.38h43.21v16.76h-43.21v17.99h49.76v16.76h-69.79V1.46h0Z"/><path class="cls-7" d="m203.73,18.83h-27.89V1.45h75.94v17.38h-27.89v68.28h-20.16V18.83Z"/><path class="cls-7" d="m267.23,1.46h69.13v16.76h-49.1v17.38h43.21v16.76h-43.21v17.99h49.76v16.76h-69.79V1.46h0Z"/><path class="cls-7" d="m425.65.85h18.59l39.28,86.26h-21.08l-8.38-19.21h-38.76l-8.38,19.21h-20.56L425.64.85h.01Zm21.21,50.41l-12.18-27.78-12.18,27.78h24.36Z"/><path class="cls-7" d="m497.66,1.46h20.16v68.52h45.7v17.13h-65.86V1.46Z"/><path class="cls-7" d="m586.96,18.83h-27.89V1.45h75.94v17.38h-27.89v68.28h-20.16V18.83Z"/><path class="cls-7" d="m670.1.85h18.59l39.28,86.26h-21.08l-8.38-19.21h-38.76l-8.38,19.21h-20.56L670.09.85h0Zm21.21,50.41l-12.18-27.78-12.18,27.78h24.36Z"/><path class="cls-7" d="m802.73,18.83h-27.89V1.45h75.94v17.38h-27.89v68.28h-20.16V18.83Z"/><path class="cls-7" d="m866.23,1.46h69.13v16.76h-49.1v17.38h43.21v16.76h-43.21v17.99h49.75v16.76h-69.79V1.46h.01Z"/><path class="cls-7" d="m949.89,44.53v-.24c0-24.35,19.64-44.29,47.79-44.29,17.28,0,27.63,5.38,36.14,13.21l-12.83,13.83c-7.07-6-14.27-9.67-23.44-9.67-15.45,0-26.58,11.99-26.58,26.67v.24c0,14.68,10.87,26.92,26.58,26.92,10.47,0,16.89-3.92,24.09-10.03l12.83,12.11c-9.43,9.42-19.9,15.29-37.58,15.29-26.97,0-47.01-19.46-47.01-44.05h0Z"/><path class="cls-7" d="m1050.57,1.46h18.59l42.95,52.74V1.46h19.9v85.65h-17.15l-44.39-54.45v54.45h-19.9V1.46h0Z"/><path class="cls-7" d="m1149.95,44.53v-.24c0-24.35,20.56-44.29,48.84-44.29s48.58,19.7,48.58,44.05v.24c0,24.35-20.56,44.29-48.84,44.29s-48.58-19.7-48.58-44.05Zm76.33,0v-.24c0-14.68-11.52-26.92-27.76-26.92s-27.5,11.99-27.5,26.67v.24c0,14.68,11.52,26.92,27.76,26.92s27.5-11.99,27.5-26.67Z"/><path class="cls-7" d="m1265.29,1.46h20.16v68.52h45.7v17.13h-65.86V1.46Z"/><path class="cls-7" d="m1337.04,44.53v-.24c0-24.35,20.56-44.29,48.84-44.29s48.58,19.7,48.58,44.05v.24c0,24.35-20.56,44.29-48.84,44.29s-48.58-19.7-48.58-44.05Zm76.34,0v-.24c0-14.68-11.52-26.92-27.76-26.92s-27.5,11.99-27.5,26.67v.24c0,14.68,11.52,26.92,27.76,26.92s27.5-11.99,27.5-26.67Z"/><path class="cls-7" d="m1448.33,44.53v-.24c0-24.35,20.29-44.29,48.05-44.29,16.5,0,26.45,4.16,36.01,11.75l-12.7,14.32c-7.07-5.51-13.36-8.69-23.96-8.69-14.66,0-26.32,12.11-26.32,26.67v.24c0,15.66,11.52,27.16,27.76,27.16,7.33,0,13.88-1.71,18.99-5.14v-12.24h-20.3v-16.27h39.8v37.2c-9.43,7.46-22.39,13.58-39.15,13.58-28.54,0-48.18-18.72-48.18-44.05h0Z"/><path class="cls-7" d="m1555.95,1.46h20.16v85.65h-20.16V1.46Z"/><path class="cls-7" d="m1630.45.85h18.59l39.28,86.26h-21.08l-8.38-19.21h-38.76l-8.38,19.21h-20.56L1630.44.85h.01Zm21.22,50.41l-12.18-27.78-12.18,27.78h24.36Z"/><path class="cls-7" d="m1.39,211.42v-81.74h59.32v5.6H7.59v32.11h47.76v5.61H7.59v32.81h53.72v5.61H1.39Z"/><path class="cls-7" d="m153.62,211.42v-71l-32.99,47.06h-.48l-32.99-47.06v71h-5.96v-81.74h5.84l33.47,48.35,33.47-48.35h5.84v81.74h-6.2Z"/><path class="cls-7" d="m185.43,211.42v-81.74h6.19v81.74h-6.19Z"/><path class="cls-7" d="m217.23,211.42v-81.74h6.19v76.14h48.95v5.61h-55.15,0Z"/><path class="cls-7" d="m291.79,211.42v-81.74h6.19v81.74h-6.19Z"/><path class="cls-7" d="m393.27,211.42l-10.6-22.89h-49.19l-10.6,22.89h-6.43l38.83-82.33h5.96l38.83,82.33h-6.8Zm-35.13-75.67l-22.04,47.29h43.95l-21.92-47.29h.01Z"/><path class="cls-7" d="m408.88,180.01v-6.54h31.92v6.54h-31.92Z"/><path class="cls-7" d="m521.56,211.42l-26.56-33.87h-27.28v33.87h-6.19v-81.74h35.02c17.99,0,29.78,9.58,29.78,23.24v.23c0,13.66-10.36,21.49-24.42,23.35l27.51,34.92h-7.86Zm-1.43-58.27c0-10.98-8.81-17.87-23.94-17.87h-28.47v36.78h28.11c13.94,0,24.3-6.89,24.3-18.68v-.23h0Z"/><path class="cls-7" d="m585.77,212.83c-25.25,0-41.81-19.74-41.81-42.04v-.23c0-22.3,16.79-42.27,42.05-42.27s41.81,19.73,41.81,42.04c.08.08.08.16,0,.23,0,22.3-16.79,42.27-42.05,42.27h0Zm35.61-42.28c0-20.2-15.01-36.78-35.61-36.78s-35.38,16.35-35.38,36.55v.23c0,20.2,15.01,36.78,35.61,36.78s35.38-16.35,35.38-36.55v-.23Z"/><path class="cls-7" d="m721.32,211.42v-71l-32.99,47.06h-.48l-32.99-47.06v71h-5.96v-81.74h5.84l33.47,48.35,33.47-48.35h5.84v81.74h-6.2Z"/><path class="cls-7" d="m821.97,211.42l-10.6-22.89h-49.19l-10.6,22.89h-6.43l38.83-82.33h5.96l38.83,82.33h-6.8Zm-35.14-75.67l-22.04,47.29h43.95l-21.92-47.29h0Z"/><path class="cls-7" d="m879.86,212.83c-26.32,0-41.93-19.03-41.93-42.04v-.23c0-22.07,16.32-42.27,41.21-42.27,13.58,0,22.15,3.97,30.49,10.74l-4.05,4.55c-6.55-5.6-14.17-9.81-26.8-9.81-20.25,0-34.42,16.82-34.42,36.55v.23c0,21.14,13.46,36.9,35.73,36.9,10.6,0,20.49-4.32,26.56-9.34v-23.47h-27.87v-5.61h33.83v31.53c-7.5,6.54-19.18,12.26-32.75,12.26h0Z"/><path class="cls-7" d="m999.69,211.42l-58.72-72.63v72.63h-5.96v-81.74h5.84l57.53,71.12v-71.12h5.96v81.74h-4.65Z"/><path class="cls-7" d="m1098.79,211.42l-10.6-22.89h-49.19l-10.6,22.89h-6.43l38.83-82.33h5.96l38.83,82.33h-6.8Zm-35.14-75.67l-22.04,47.29h43.95l-21.92-47.29h.01Z"/><rect class="cls-1" x="1144.99" y="144.75" width="30.35" height="65.29"/><rect class="cls-8" x="1217.35" y="144.75" width="30.35" height="65.29"/><rect class="cls-2" x="1290.67" y="144.75" width="30.35" height="65.29"/><rect class="cls-3" x="1363.01" y="144.75" width="30.35" height="65.29"/><rect class="cls-6" x="1507.35" y="144.75" width="30.35" height="65.29"/><rect class="cls-5" x="1435.18" y="144.75" width="30.35" height="65.29"/><rect class="cls-9" x="1580.76" y="144.75" width="30.35" height="65.29"/><rect class="cls-4" x="1652.76" y="144.75" width="30.35" height="65.29"/><path class="cls-7" d="m1.51,261.02h16.39v31.38h30.22v-31.38h16.39v79.29h-16.39v-31.83h-30.22v31.83H1.51v-79.29Z"/><path class="cls-7" d="m82.28,261.02h16.39v79.29h-16.39v-79.29Z"/><path class="cls-7" d="m113.13,300.89v-.23c0-22.54,16.49-41,39.05-41,13.41,0,21.49,3.85,29.26,10.87l-10.32,13.25c-5.75-5.1-10.85-8.04-19.47-8.04-11.92,0-21.39,11.21-21.39,24.69v.23c0,14.5,9.36,25.15,22.56,25.15,5.96,0,11.28-1.59,15.43-4.76v-11.33h-16.49v-15.06h32.35v34.43c-7.66,6.91-18.19,12.57-31.81,12.57-23.2,0-39.16-17.33-39.16-40.78h-.01Z"/><path class="cls-7" d="m199,261.02h16.39v31.38h30.22v-31.38h16.39v79.29h-16.39v-31.83h-30.22v31.83h-16.39v-79.29h0Z"/><path class="cls-7" d="m327.43,277.1h-22.66v-16.08h61.71v16.08h-22.66v63.2h-16.39v-63.2h0Z"/><path class="cls-7" d="m378.19,261.02h56.18v15.52h-39.9v16.08h35.11v15.52h-35.11v16.65h40.43v15.52h-56.71v-79.29h0Z"/><path class="cls-7" d="m445.33,300.89v-.23c0-22.54,15.96-41,38.84-41,14.04,0,22.45,4.98,29.37,12.23l-10.43,12.8c-5.75-5.55-11.6-8.95-19.05-8.95-12.56,0-21.6,11.1-21.6,24.69v.23c0,13.59,8.83,24.92,21.6,24.92,8.51,0,13.73-3.62,19.58-9.29l10.43,11.21c-7.66,8.72-16.17,14.16-30.54,14.16-21.92,0-38.2-18.01-38.2-40.78h0Z"/><path class="cls-7" d="m526.3,261.02h16.39v31.38h30.22v-31.38h16.39v79.29h-16.39v-31.83h-30.22v31.83h-16.39v-79.29Z"/><path class="cls-7" d="m606.32,261.02h15.11l34.9,48.82v-48.82h16.17v79.29h-13.94l-36.07-50.4v50.4h-16.17v-79.29Z"/><path class="cls-7" d="m686.23,300.89v-.23c0-22.54,16.7-41,39.69-41s39.47,18.24,39.47,40.78v.23c0,22.54-16.7,41-39.69,41s-39.47-18.24-39.47-40.78h0Zm62.03,0v-.23c0-13.59-9.36-24.92-22.56-24.92s-22.34,11.1-22.34,24.69v.23c0,13.59,9.36,24.92,22.56,24.92s22.34-11.1,22.34-24.69Z"/><path class="cls-7" d="m779.12,261.02h16.39v63.43h37.13v15.86h-53.52v-79.29Z"/><path class="cls-7" d="m836.58,300.89v-.23c0-22.54,16.7-41,39.69-41s39.47,18.24,39.47,40.78v.23c0,22.54-16.71,41-39.69,41s-39.47-18.24-39.47-40.78h0Zm62.03,0v-.23c0-13.59-9.36-24.92-22.56-24.92s-22.34,11.1-22.34,24.69v.23c0,13.59,9.36,24.92,22.56,24.92s22.34-11.1,22.34-24.69Z"/><path class="cls-7" d="m926.18,300.89v-.23c0-22.54,16.49-41,39.05-41,13.41,0,21.49,3.85,29.26,10.87l-10.32,13.25c-5.75-5.1-10.85-8.04-19.47-8.04-11.92,0-21.39,11.21-21.39,24.69v.23c0,14.5,9.36,25.15,22.56,25.15,5.96,0,11.28-1.59,15.43-4.76v-11.33h-16.49v-15.06h32.34v34.43c-7.66,6.91-18.19,12.57-31.81,12.57-23.2,0-39.15-17.33-39.15-40.78h-.01Z"/><path class="cls-7" d="m1029.81,309.04l-28.62-48.02h19.15l17.77,31.83,18.09-31.83h18.62l-28.62,47.68v31.6h-16.39v-31.26h0Z"/><path class="cls-7" d="m1115.26,261.02h15.11l34.9,48.82v-48.82h16.17v79.29h-13.94l-36.07-50.4v50.4h-16.17v-79.29h0Z"/><path class="cls-7" d="m1198.47,261.02h56.18v15.52h-39.9v16.08h35.11v15.52h-35.11v16.65h40.43v15.52h-56.71v-79.29h0Z"/><path class="cls-7" d="m1286.25,277.1h-22.66v-16.08h61.71v16.08h-22.66v63.2h-16.39v-63.2h0Z"/><path class="cls-7" d="m1331.26,261.02h17.56l15.43,53.69,16.71-53.92h14.04l16.7,53.92,15.43-53.69h17.13l-25.43,79.85h-14.26l-16.81-51.88-16.81,51.88h-14.26l-25.43-79.85h0Z"/><path class="cls-7" d="m1447.99,300.89v-.23c0-22.54,16.7-41,39.69-41s39.47,18.24,39.47,40.78v.23c0,22.54-16.71,41-39.69,41s-39.47-18.24-39.47-40.78Zm62.03,0v-.23c0-13.59-9.36-24.92-22.56-24.92s-22.34,11.1-22.34,24.69v.23c0,13.59,9.36,24.92,22.56,24.92s22.34-11.1,22.34-24.69Z"/><path class="cls-7" d="m1540.88,261.02h34.05c9.47,0,16.81,2.83,21.71,8.04,4.15,4.42,6.38,10.65,6.38,18.12v.23c0,12.8-6.49,20.84-15.96,24.58l18.19,28.32h-19.15l-15.96-25.37h-12.87v25.37h-16.39v-79.29Zm32.98,38.51c7.98,0,12.55-4.53,12.55-11.21v-.23c0-7.48-4.89-11.33-12.87-11.33h-16.28v22.77h16.6Z"/><path class="cls-7" d="m1616.96,261.02h16.39v34.66l30.22-34.66h19.79l-30.32,33.64,31.71,45.65h-19.68l-23.09-33.75-8.62,9.51v24.24h-16.39v-79.29h-.01Z"/></g></svg>
